<?xml version="1.0" standalone="no"?>
<!DOCTYPE svg PUBLIC "-//W3C//DTD SVG 1.1//EN" "http://www.w3.org/Graphics/SVG/1.1/DTD/svg11.dtd" >
<svg xmlns="http://www.w3.org/2000/svg">
<metadata>
<json>
<![CDATA[
{
	"fontFamily": "icon-fonts",
	"description": "Font generated by IcoMoon.",
	"majorVersion": 1,
	"minorVersion": 0,
	"version": "Version 1.0",
	"fontId": "icon-fonts",
	"psName": "icon-fonts",
	"subFamily": "Regular",
	"fullName": "icon-fonts"
}
]]>
</json>
</metadata>
<defs>
<font id="icon-fonts" horiz-adv-x="1024">
<font-face units-per-em="1024" ascent="960" descent="-64" />
<missing-glyph horiz-adv-x="1024" />
<glyph unicode="&#x20;" horiz-adv-x="512" d="" />
<glyph unicode="&#xe900;" glyph-name="bullet1" data-tags="bullet1" d="M1008.995 358.094l-91.925 89.948 91.925 89.944c13.336 12.438 17.775 27.981 13.336 46.636-5.327 18.211-16.874 29.536-34.651 33.976l-125.25 31.983 35.313 123.92c5.318 18.204 1.118 33.759-12.664 46.636-12.874 13.772-28.422 17.992-46.638 12.662l-123.906-35.313-31.99 125.252c-4.441 18.216-15.749 29.538-33.955 33.979-18.225 4.891-33.766 0.663-46.638-12.657l-89.951-92.611-89.941 92.609c-12.881 13.768-28.425 17.987-46.636 12.657-18.211-4.441-29.536-15.763-33.976-33.979l-31.983-125.252-123.917 35.313c-18.211 5.332-33.755 1.111-46.636-12.662-13.77-12.876-17.992-28.42-12.657-46.636l35.309-123.92-125.252-31.983c-17.765-4.441-29.316-15.763-34.641-33.976-4.448-18.654 0-34.198 13.322-46.636l91.936-89.944-91.936-89.946c-13.322-12.433-17.763-27.981-13.322-46.626 5.325-18.216 16.876-29.538 34.641-33.981l125.252-31.974-35.309-123.922c-5.334-18.209-1.113-33.748 12.657-46.636 12.881-13.765 28.425-17.975 46.636-12.65l123.92 35.297 31.983-125.248c4.441-18.209 15.763-29.755 33.976-34.634 18.654-4.438 34.2 0 46.636 13.32l89.944 91.939 89.951-91.946c8.881-9.761 20.204-14.645 33.965-14.645 3.122 0 7.332 0.446 12.676 1.323 18.206 5.334 29.521 16.881 33.962 34.644l31.974 125.241 123.915-35.306c18.218-5.316 33.766-1.101 46.638 12.666 13.772 12.888 17.992 28.429 12.664 46.636l-35.304 123.922 125.241 31.967c17.784 4.438 29.321 15.772 34.651 33.979 4.441 18.652 0 34.2-13.343 46.636z" />
<glyph unicode="&#xe901;" glyph-name="check-mark" data-tags="check-mark" d="M979.285 893.348c-46.208 24.881-97.748-23.104-127.961-51.54-69.309-67.535-127.958-145.733-193.718-216.822-72.867-78.198-140.401-156.397-215.045-232.82-42.654-42.654-88.862-88.862-117.297-142.179-63.98 62.206-119.075 129.741-190.164 184.832-51.54 39.099-136.847 67.535-135.070-26.658 3.554-122.632 111.966-254.147 191.941-337.674 33.767-35.545 78.198-72.867 129.738-74.644 62.203-3.554 126.184 71.089 163.505 111.966 65.761 71.089 119.078 151.068 179.501 223.931 78.198 95.971 158.174 190.167 234.595 287.915 47.985 60.426 199.050 209.716 79.975 273.694zM78.224 415.269c-1.777 0-3.554 0-7.109-1.774-7.109 1.774-12.441 3.554-19.55 7.109v0c5.332 3.554 14.218 1.777 26.658-5.335z" />
<glyph unicode="&#xe902;" glyph-name="flight" data-tags="flight" horiz-adv-x="919" d="M278.495-55.966h90.447l226.121 424.419h248.733c37.536 0 67.837 35.547 67.837 79.579s-30.3 79.579-67.837 79.579h-248.733l-226.121 424.423h-90.447l113.060-424.423h-248.731l-67.838 106.107h-67.838l45.225-185.686-45.225-185.688h67.838l67.838 106.109h248.731l-113.060-424.417z" />
<glyph unicode="&#xe903;" glyph-name="hotel" data-tags="hotel" horiz-adv-x="1406" d="M639.025 822.704h511.124c141.197 0 255.561-121.966 255.561-272.549v-613.228h-127.783v204.412h-1150.024v-204.412h-127.78v1022.052h127.78v-613.232h511.122v476.957zM575.145 618.294c0-113.107-85.616-204.413-191.672-204.413s-191.671 91.307-191.671 204.413c0 113.107 85.616 204.409 191.671 204.409s191.672-91.302 191.672-204.409z" />
<glyph unicode="&#xe904;" glyph-name="camera" data-tags="camera" horiz-adv-x="1103" d="M386.176 960l-100.957-113.778h-174.883c-60.685 0-110.336-51.2-110.336-113.778v-682.666c0-62.578 49.651-113.778 110.336-113.778h882.688c60.685 0 110.336 51.2 110.336 113.778v682.666c0 62.578-49.651 113.778-110.336 113.778h-174.883l-100.957 113.778h-331.008zM551.698 106.664c-152.264 0-275.84 127.432-275.84 284.444 0 157.014 123.576 284.445 275.84 284.445s275.84-127.432 275.84-284.445c0-157.012-123.576-284.444-275.84-284.444v0z" />
<glyph unicode="&#xe905;" glyph-name="tourpackage" data-tags="tourpackage" horiz-adv-x="4426" d="M3860.399 872.142l-79.651-89.766h-137.974c-47.878 0-87.050-40.395-87.050-89.766v-538.593c0-49.371 39.173-89.766 87.050-89.766h696.401c47.878 0 87.050 40.394 87.050 89.766v538.593c0 49.371-39.173 89.766-87.050 89.766h-137.974l-79.651 89.766h-261.15zM3990.988 198.898c-120.129 0-217.625 100.538-217.625 224.414s97.496 224.415 217.625 224.415 217.625-100.538 217.625-224.415c0-123.876-97.496-224.414-217.625-224.414v0zM275.635-63.929h91.877l229.694 431.126h252.663c38.129 0 68.909 36.108 68.909 80.836s-30.779 80.836-68.909 80.836h-252.663l-229.694 431.13h-91.877l114.847-431.13h-252.661l-68.91 107.783h-68.91l45.94-188.62-45.94-188.622h68.91l68.91 107.785h252.661l-114.847-431.124zM2203 764.56h404.262c111.677 0 202.13-96.466 202.13-215.566v-485.019h-101.067v161.675h-909.585v-161.675h-101.065v808.368h101.065v-485.022h404.26v377.238zM2152.475 602.888c0-89.46-67.716-161.676-151.598-161.676s-151.597 72.217-151.597 161.676c0 89.46 67.716 161.673 151.597 161.673s151.598-72.213 151.598-161.673zM1276.337 264.331v144.284h-145.42v99.598h145.42v144.284h96.947v-144.284h145.799v-99.598h-145.799v-144.284h-96.947zM3123.372 254.233v144.284h-145.42v99.598h145.42v144.284h96.947v-144.284h145.799v-99.598h-145.799v-144.284h-96.947z" />
<glyph unicode="&#xe906;" glyph-name="flightplushotel" data-tags="flightplushotel" horiz-adv-x="2816" d="M272.942-53.933h90.98l227.451 426.918h250.196c37.757 0 68.236 35.755 68.236 80.047s-30.478 80.047-68.236 80.047h-250.196l-227.451 426.92h-90.98l113.725-426.92h-250.194l-68.237 106.73h-68.237l45.491-186.778-45.491-186.78h68.237l68.237 106.732h250.194l-113.725-426.918zM2181.485 766.473h400.314c110.586 0 200.154-95.524 200.154-213.461v-480.282h-100.077v160.096h-900.703v-160.096h-100.078v800.474h100.078v-480.285h400.312v373.555zM2131.454 606.379c0-88.586-67.055-160.097-150.118-160.097s-150.117 71.512-150.117 160.097c0 88.586 67.055 160.094 150.117 160.094s150.118-71.508 150.118-160.094zM1263.872 271.126v142.875h-144v98.625h144v142.875h96v-142.875h144.375v-98.625h-144.375v-142.875h-96z" />
<glyph unicode="&#xe907;" glyph-name="add-button-inside-black-circle" data-tags="add-button-inside-black-circle" d="M512 960c-281.6 0-512-230.4-512-512s230.4-512 512-512 512 230.4 512 512-230.4 512-512 512zM768 396.8h-204.8v-204.8h-102.4v204.8h-204.8v102.4h204.8v204.8h102.4v-204.8h204.8v-102.4z" />
<glyph unicode="&#xe908;" glyph-name="up-chevron" data-tags="up-chevron" d="M463.457 718.085l-443.46-443.46c-26.667-26.667-26.667-70.014 0-96.676s70.014-26.667 96.676 0l395.324 395.324 395.324-395.324c26.667-26.667 70.014-26.667 96.676 0s26.667 70.014 0 96.676l-443.322 443.46c-13.536 13.536-31.176 20.101-48.545 19.963-17.769 0-35.276-6.566-48.674-19.963z" />
<glyph unicode="&#xe909;" glyph-name="search" data-tags="search" d="M998.935 82.081l-222.458 222.454c-1.182 1.182-2.569 2.009-3.805 3.109 43.772 66.399 69.32 145.881 69.32 231.356 0 232.513-188.487 421-420.996 421s-420.996-188.487-420.996-420.996c0-232.505 188.483-420.996 420.992-420.996 85.479 0 164.956 25.548 231.356 69.32 1.1-1.231 1.923-2.618 3.105-3.8l222.462-222.462c33.418-33.414 87.598-33.414 121.020 0 33.414 33.418 33.414 87.598 0 121.016zM420.996 263.953c-151.911 0-275.054 123.144-275.054 275.050 0 151.911 123.148 275.054 275.054 275.054 151.902 0 275.050-123.148 275.050-275.054s-123.148-275.050-275.050-275.050z" />
<glyph unicode="&#xe90a;" glyph-name="user" data-tags="user" d="M813.176 658.824c0 83.185-33.732 158.479-88.184 212.932-54.513 54.513-129.807 88.245-212.992 88.245s-158.479-33.732-212.992-88.245c-54.453-54.453-88.184-129.747-88.184-212.932s33.732-158.479 88.184-212.932c54.513-54.513 129.807-88.245 212.992-88.245s158.479 33.732 212.992 88.245c54.453 54.453 88.184 129.747 88.184 212.932zM150.588 56.471c0-60.235 135.529-120.471 361.412-120.471 211.908 0 361.412 60.235 361.412 120.471 0 120.471-141.794 240.941-361.412 240.941-225.882 0-361.412-120.471-361.412-240.941z" />
<glyph unicode="&#xe90b;" glyph-name="image-add-button" data-tags="image-add-button" d="M896 768h-128l-128 128h-256.032l-127.968-128h-128c0 0-128 0-128-128v-384c0-128 128-128 128-128s181.184 0 368.576 0c51.648-77.152 139.552-127.968 239.424-128 124 0.064 229.344 78.528 269.952 188.448 17.888 33.12 18.048 67.552 18.048 67.552s0 256 0 384-128 128-128 128zM449.056 266.88c-75.104 25.984-129.056 97.088-129.056 181.12 0 105.984 85.888 192 192 192 61.248 0 115.424-29.056 150.592-73.792-123.456-32.48-214.592-144.512-214.592-278.208 0-7.136 0.576-14.112 1.056-21.12zM736 67.744c-121.632 0.288-220.032 98.688-220.32 220.256 0.288 121.632 98.688 220.032 220.32 220.32 121.568-0.288 219.968-98.688 220.256-220.32-0.288-121.568-98.688-219.968-220.256-220.256zM768.064 448h-64.064v-128h-128v-64h128v-128h64.064v128h127.936v64h-127.936z" />
<glyph unicode="&#xe90c;" glyph-name="double-king-size-bed" data-tags="double-king-size-bed" d="M1021.942 308.994l-112.718 178.454v328.275l-45.883 45.883h-702.684l-45.883-45.883v-328.272l-112.718-178.457h1019.886zM817.457 769.839v-229.054c-59.132 15.296-161.283 34.158-305.459 34.158s-246.327-18.862-305.459-34.158v229.054h610.918zM0 252.531v-91.766h106.916v-126.368h91.766v126.368h626.633v-126.368h91.766v126.368h106.918v91.766zM474.76 622.685v53.458c0 31.73-46.051 57.461-102.857 57.461s-102.854-25.731-102.854-57.461v-80.241c0 0 60.671 15.275 102.372 19.224 37.543 3.558 103.339 7.559 103.339 7.559zM754.951 595.902v80.241c0 31.73-46.051 57.461-102.857 57.461s-102.857-25.731-102.857-57.461v-53.458c0 0 65.799-3.998 103.342-7.559 41.704-3.949 102.372-19.224 102.372-19.224z" />
<glyph unicode="&#xe90d;" glyph-name="flower-with-rounded-petals" data-tags="flower-with-rounded-petals" d="M888.838 448.005c88.247 52.717 118.138 166.674 66.56 256.001-51.575 89.327-165.205 120.418-254.979 70.349-1.532 102.781-85.274 185.644-188.419 185.644-103.147 0-186.892-82.864-188.419-185.652-89.776 50.068-203.412 18.975-254.984-70.357-51.572-89.324-21.685-203.281 66.568-255.994-88.25-52.717-118.14-166.674-66.565-256.001 51.575-89.33 165.21-120.42 254.987-70.349 1.524-102.788 85.272-185.655 188.419-185.649 103.15 0 186.89 82.866 188.417 185.649 89.776-50.066 203.414-18.975 254.982 70.359 51.575 89.33 21.682 203.286-66.565 255.999zM512 275.39c-95.331 0-172.613 77.279-172.613 172.613s77.282 172.613 172.613 172.613c95.328 0 172.613-77.279 172.613-172.613s-77.282-172.613-172.613-172.613z" />
<glyph unicode="&#xe90e;" glyph-name="down-chevron" data-tags="down-chevron" d="M560.543 177.915l443.46 443.46c26.667 26.667 26.667 70.014 0 96.676s-70.014 26.667-96.676 0l-395.324-395.324-395.324 395.324c-26.667 26.667-70.014 26.667-96.676 0s-26.667-70.014 0-96.676l443.322-443.46c13.536-13.536 31.176-20.101 48.545-19.963 17.769 0 35.276 6.566 48.674 19.963z" />
<glyph unicode="&#xe90f;" glyph-name="information" data-tags="information" d="M512 960c-282.317 0-512-229.686-512-512.003s229.683-511.997 512-511.997 512 229.68 512 511.997c0 282.317-229.683 512.003-512 512.003zM512 29.091c-230.99 0-418.909 187.92-418.909 418.906s187.92 418.912 418.909 418.912 418.909-187.926 418.909-418.912c0-230.986-187.923-418.906-418.909-418.906zM511.994 742.788c-34.214 0-62.048-27.853-62.048-62.089 0-34.205 27.834-62.033 62.048-62.033s62.048 27.828 62.048 62.033c0 34.236-27.834 62.089-62.048 62.089zM512 525.576c-25.706 0-46.545-20.84-46.545-46.545v-279.273c0-25.706 20.84-46.545 46.545-46.545s46.545 20.84 46.545 46.545v279.273c0 25.706-20.84 46.545-46.545 46.545z" />
<glyph unicode="&#xe910;" glyph-name="circle" data-tags="circle" d="M955.349 705.005c-45.786 78.439-107.891 140.545-186.333 186.328-78.456 45.781-164.101 68.667-257.001 68.667-92.891 0-178.562-22.886-257.003-68.667-78.446-45.776-140.552-107.882-186.338-186.328-45.788-78.451-68.674-164.122-68.674-257.006 0-92.889 22.893-178.546 68.667-257.001 45.783-78.439 107.889-140.545 186.335-186.333 78.451-45.779 164.115-68.667 257.003-68.667s178.562 22.888 257.008 68.667c78.442 45.772 140.545 107.894 186.326 186.333 45.774 78.449 68.658 164.117 68.658 257.001 0.002 92.893-22.884 178.567-68.648 257.006zM826.008 266.002c-32.443-55.553-76.44-99.551-131.994-132.010-55.553-32.443-116.218-48.649-182.006-48.649-65.772 0-126.441 16.205-182.001 48.649-55.553 32.46-99.551 76.457-131.994 132.010-32.45 55.553-48.67 116.221-48.67 181.997 0 65.781 16.226 126.448 48.67 182.001 32.436 55.553 76.445 99.56 131.994 132.001 55.553 32.446 116.221 48.663 182.001 48.663 65.786 0 126.453-16.217 182.006-48.663 55.553-32.443 99.553-76.447 131.994-132.001 32.446-55.553 48.658-116.221 48.658-182.001 0-65.776-16.212-126.443-48.658-181.997z" />
<glyph unicode="&#xe911;" glyph-name="confirm" data-tags="confirm" d="M511.992 960c-281.253 0-511.368-230.405-511.368-511.992s230.116-511.992 511.368-511.992 511.368 230.405 511.368 511.992-230.116 511.992-511.368 511.992zM511.992 64.010c-210.939 0-383.526 172.8-383.526 383.998s172.587 383.998 383.526 383.998 383.526-172.8 383.526-383.998-172.587-383.998-383.526-383.998zM659.011 620.808l-210.939-211.198-89.489 89.596c-25.568 25.599-63.921 25.599-89.489 0s-25.568-63.997 0-89.596l134.234-134.402c12.784-12.799 25.568-19.207 44.745-19.207s31.961 6.407 44.745 19.207l255.684 256.004c25.568 25.599 25.568 63.997 0 89.596s-63.921 25.599-89.489 0z" />
<glyph unicode="&#xe912;" glyph-name="clock" data-tags="clock" d="M512 960c-282.317 0-512-229.683-512-512s229.683-512 512-512 512 229.683 512 512-229.683 512-512 512zM512 44.945c-222.243 0-403.066 180.802-403.066 403.055s180.823 403.055 403.066 403.055 403.066-180.802 403.066-403.055-180.823-403.055-403.066-403.055zM778.834 463.809h-230.094v276.657c0 23.281-18.876 42.157-42.157 42.157s-42.157-18.876-42.157-42.157v-318.814c0-23.281 18.876-42.157 42.157-42.157h272.252c23.281 0 42.157 18.876 42.157 42.157s-18.876 42.157-42.157 42.157z" />
<glyph unicode="&#xe913;" glyph-name="flight-return" data-tags="flight-return" horiz-adv-x="919" d="M640.505 951.966h-90.447l-226.121-424.419h-248.733c-37.536 0-67.837-35.547-67.837-79.579s30.3-79.579 67.837-79.579h248.733l226.121-424.423h90.447l-113.060 424.423h248.731l67.838-106.107h67.838l-45.225 185.686 45.225 185.688h-67.838l-67.838-106.109h-248.731l113.060 424.417z" />
<glyph unicode="&#xe914;" glyph-name="right-chevron" data-tags="right-chevron" d="M782.085 496.543l-443.46 443.46c-26.667 26.667-70.014 26.667-96.676 0s-26.667-70.014 0-96.676l395.324-395.324-395.324-395.324c-26.667-26.667-26.667-70.014 0-96.676s70.014-26.667 96.676 0l443.46 443.322c13.536 13.536 20.101 31.176 19.963 48.545 0 17.769-6.566 35.276-19.963 48.674z" />
<glyph unicode="&#xe915;" glyph-name="left-chevron" data-tags="left-chevron" d="M241.915 399.457l443.46-443.46c26.667-26.667 70.014-26.667 96.676 0s26.667 70.014 0 96.676l-395.324 395.324 395.324 395.324c26.667 26.667 26.667 70.014 0 96.676s-70.014 26.667-96.676 0l-443.46-443.322c-13.536-13.536-20.101-31.176-19.963-48.545 0-17.769 6.566-35.276 19.963-48.674z" />
<glyph unicode="&#xe916;" glyph-name="checked" data-tags="checked" d="M512 960c-283.927 0-512-228.073-512-512s228.073-512 512-512 512 228.073 512 512-228.073 512-512 512zM807.564 608.582v0l-372.364-386.327c-4.655-4.655-9.309-6.982-16.291-6.982s-13.964 2.327-16.291 6.982l-181.527 195.491-4.655 4.655c-4.655 4.655-6.982 11.636-6.982 16.291s2.327 11.636 6.982 16.291l32.582 32.582c9.309 9.309 23.273 9.309 32.582 0l2.327-2.327 128-137.309c4.655-4.655 11.636-4.655 16.291 0l311.855 323.491h2.327c9.309 9.309 23.273 9.309 32.582 0l32.582-32.582c9.309-6.982 9.309-20.945 0-30.255z" />
<glyph unicode="&#xe917;" glyph-name="edit" data-tags="edit" d="M614.873 745.323c-26.83 26.861-70.336 26.861-97.162 0l-374.985-375.575c0 0-34.173-34.417-111.33-283.504-0.541-1.741-1.078-3.471-1.623-5.236-1.376-4.462-2.766-8.997-4.169-13.592-1.242-4.062-2.5-8.208-3.761-12.381-1.063-3.517-2.119-6.996-3.197-10.59-2.446-8.155-4.923-16.454-7.45-25.024-5.544-18.813-19.087-61.236-3.772-76.593 14.747-14.793 57.616-1.78 76.376 3.784 8.505 2.523 16.748 4.996 24.841 7.438 3.738 1.128 7.362 2.233 11.016 3.346 3.929 1.197 7.838 2.385 11.668 3.563 4.836 1.486 9.603 2.953 14.29 4.409 1.398 0.434 2.77 0.865 4.157 1.296 236.988 73.792 279.533 108.423 283.069 111.589 0.027 0.019 0.027 0.019 0.046 0.038 0.149 0.137 0.251 0.229 0.251 0.229l10.971 10.997 0.735-0.735 364.361 364.746c26.83 26.857 26.83 70.404 0 97.265l-194.332 194.53zM394.011 122.502c-0.297-0.202-0.701-0.465-1.128-0.735-0.236-0.152-0.522-0.332-0.804-0.507-0.286-0.179-0.598-0.373-0.93-0.575-0.293-0.179-0.598-0.362-0.926-0.56-11.314-6.771-44.515-24.243-125.094-53.413-9.416-3.407-19.67-7.019-30.412-10.742l-114.546 114.664c3.734 10.822 7.351 21.153 10.769 30.641 29.105 80.918 46.562 114.219 53.295 125.517 0.164 0.271 0.312 0.518 0.461 0.762 0.236 0.389 0.457 0.751 0.663 1.082 0.164 0.263 0.335 0.537 0.48 0.762 0.271 0.423 0.533 0.827 0.735 1.128l8.383 8.406 207.62-207.837-8.566-8.593zM1003.522 745.323l-194.329 194.53c-26.83 26.857-70.328 26.857-97.162 0l-48.577-48.635c-26.83-26.857-26.83-70.404 0-97.261l194.325-194.53c26.827-26.857 70.332-26.857 97.162 0l48.581 48.631c26.83 26.861 26.83 70.408 0 97.265z" />
<glyph unicode="&#xe918;" glyph-name="add-symbol" data-tags="add-symbol" d="M930.072 541.927h-324.112v324.182c0.003 51.777-42.132 93.892-93.961 93.892s-93.961-42.115-93.961-93.892v-324.182h-324.076c-51.81 0-93.961-42.152-93.961-93.925 0-51.757 42.135-93.892 93.961-93.892h324.076v-324.182c0-51.793 42.115-93.925 93.961-93.925 51.83 0 93.961 42.135 93.961 93.925v324.182h324.112c51.793 0 93.925 42.135 93.925 93.892 0.003 51.773-42.132 93.925-93.925 93.925z" />
<glyph unicode="&#xe919;" glyph-name="minus-gross-horizontal-straight-line-symbol" data-tags="minus-gross-horizontal-straight-line-symbol" d="M928 544h-832c-53.024 0-96-42.976-96-96s42.976-96 96-96h832c53.024 0 96 42.976 96 96s-42.976 96-96 96z" />
<glyph unicode="&#xe91a;" glyph-name="calendar" data-tags="calendar" d="M373.086 395.064c0 12.827-10.405 23.22-23.243 23.22h-81.108c-12.823 0-23.23-10.392-23.23-23.22v-81.097c0-12.844 10.407-23.24 23.23-23.24h81.108c12.838 0 23.243 10.396 23.243 23.24v81.097zM575.785 395.064c0 12.827-10.407 23.22-23.22 23.22h-81.118c-12.823 0-23.23-10.392-23.23-23.22v-81.097c0-12.844 10.407-23.24 23.23-23.24h81.118c12.813 0 23.22 10.396 23.22 23.24v81.097zM778.495 395.064c0 12.827-10.407 23.22-23.23 23.22h-81.108c-12.838 0-23.243-10.392-23.243-23.22v-81.097c0-12.844 10.405-23.24 23.243-23.24h81.108c12.823 0 23.23 10.396 23.23 23.24v81.097zM373.086 192.344c0 12.848-10.405 23.232-23.243 23.232h-81.108c-12.823 0-23.23-10.384-23.23-23.232v-81.083c0-12.836 10.407-23.23 23.23-23.23h81.108c12.838 0 23.243 10.396 23.243 23.23v81.083zM575.785 192.344c0 12.848-10.407 23.232-23.22 23.232h-81.118c-12.823 0-23.23-10.384-23.23-23.232v-81.083c0-12.836 10.407-23.23 23.23-23.23h81.118c12.813 0 23.22 10.396 23.22 23.23v81.083zM778.495 192.344c0 12.848-10.407 23.232-23.22 23.232h-81.118c-12.838 0-23.243-10.384-23.243-23.232v-81.083c0-12.836 10.405-23.23 23.243-23.23h81.118c12.813 0 23.22 10.396 23.22 23.23v81.083zM923.524 845.981v-123.87c0-55.988-45.42-101.105-101.399-101.105h-63.965c-55.984 0-102.005 45.117-102.005 101.105v124.314h-288.309v-124.314c0-55.988-46.020-101.105-101.995-101.105h-63.978c-55.977 0-101.395 45.117-101.395 101.105v123.87c-48.925-1.475-89.127-41.958-89.127-91.718v-725.935c0-50.695 41.090-92.331 91.785-92.331h817.728c50.62 0 91.785 41.721 91.785 92.331v725.935c0 49.76-40.2 90.243-89.125 91.718zM893.814 73.534c0-21.908-17.763-39.682-39.68-39.682h-686.015c-21.917 0-39.68 17.774-39.68 39.682v374.971c0 21.917 17.761 39.691 39.68 39.691h686.013c21.917 0 39.68-17.774 39.68-39.691l0.002-374.971zM201.648 687.413h63.271c19.205 0 34.776 15.548 34.776 34.753v203.069c0 19.207-15.571 34.765-34.776 34.765h-63.271c-19.207 0-34.776-15.559-34.776-34.765v-203.069c0-19.205 15.569-34.753 34.776-34.753zM757.346 687.413h63.271c19.192 0 34.763 15.548 34.763 34.753v203.069c0.002 19.207-15.569 34.765-34.763 34.765h-63.271c-19.202 0-34.774-15.559-34.774-34.765v-203.069c0-19.205 15.571-34.753 34.774-34.753z" />
<glyph unicode="&#xe91b;" glyph-name="right-arrow" data-tags="right-arrow" d="M57.579 367.702l-1.598 0.35h685.186l-215.397-215.872c-10.548-10.54-16.333-24.816-16.333-39.801s5.786-29.162 16.333-39.726l33.516-33.533c10.54-10.54 24.583-16.366 39.559-16.366 14.984 0 29.037 5.786 39.576 16.325l369.232 369.198c10.581 10.581 16.366 24.675 16.325 39.668 0.042 15.076-5.744 29.179-16.325 39.743l-369.232 369.232c-10.54 10.531-24.583 16.325-39.576 16.325-14.976 0-29.021-5.803-39.559-16.325l-33.516-33.533c-10.548-10.523-16.333-24.575-16.333-39.559 0-14.976 5.786-28.288 16.333-38.818l217.828-217.079h-686.785c-30.861 0-56.793-26.598-56.793-57.442v-47.427c0-30.844 26.698-55.361 57.558-55.361z" />
<glyph unicode="&#xe91c;" glyph-name="left-arrow" data-tags="left-arrow" d="M966.44 528.301l1.598-0.35h-685.214l215.406 215.881c10.548 10.54 16.334 24.817 16.334 39.803s-5.786 29.163-16.334 39.728l-33.517 33.534c-10.54 10.54-24.584 16.367-39.561 16.367-14.985 0-29.038-5.786-39.578-16.326l-369.248-369.214c-10.581-10.581-16.367-24.676-16.326-39.67-0.042-15.077 5.744-29.18 16.326-39.745l369.248-369.248c10.54-10.531 24.584-16.326 39.578-16.326 14.977 0 29.022 5.803 39.561 16.326l33.517 33.534c10.548 10.523 16.334 24.576 16.334 39.561 0 14.977-5.786 28.289-16.334 38.82l-217.837 217.088h686.813c30.862 0 56.795 26.599 56.795 57.444v47.429c0 30.845-26.699 55.363-57.56 55.363z" />
<glyph unicode="&#xe91d;" glyph-name="no-flight" data-tags="no-flight" horiz-adv-x="1140" d="M1139.559 243.541v102.227l-479.697 255.572v281.129c0 42.425-40.177 76.672-89.944 76.672s-89.944-34.246-89.944-76.672v-281.129l-479.701-255.572v-102.227l479.701 127.785v-281.126l-119.927-76.673v-76.673l209.87 51.115 209.873-51.115v76.673l-119.929 76.673v281.126l479.697-127.785zM0 883.37l43.807 51.766 1089.402-921.909-43.807-51.766-1089.402 921.909z" />
<glyph unicode="&#xe91e;" glyph-name="dollar-symbol" data-tags="dollar-symbol" d="M654.413 494.841c-40.183 22.206-82.904 39.126-125.202 56.679-24.533 10.152-48.008 21.995-68.734 38.491-40.818 32.569-32.992 85.442 14.804 106.379 13.535 5.922 27.705 7.825 42.086 8.671 55.41 2.961 108.071-7.191 158.194-31.3 24.956-12.055 33.204-8.248 41.663 17.765 8.883 27.494 16.285 55.41 24.533 83.116 5.499 18.611-1.269 30.878-18.823 38.703-32.146 14.17-65.139 24.321-99.823 29.82-45.259 6.979-45.259 7.191-45.47 52.661-0.211 64.081-0.211 64.081-64.504 64.081-9.306 0-18.611 0.211-27.917 0-30.032-0.846-35.107-6.133-35.953-36.376-0.423-13.535 0-27.071-0.211-40.818-0.211-40.183-0.423-39.549-38.914-53.507-93.056-33.838-150.581-97.285-156.714-198.8-5.499-89.883 41.452-150.581 115.262-194.782 45.47-27.282 95.805-43.355 144.025-64.716 18.823-8.248 36.799-17.765 52.449-30.878 46.316-38.28 37.857-101.938-17.131-126.048-29.397-12.901-60.486-16.073-92.421-12.055-49.277 6.133-96.439 19.034-140.852 42.086-26.013 13.535-33.627 9.94-42.509-18.188-7.614-24.321-14.381-48.854-21.149-73.387-9.094-32.992-5.71-40.818 25.802-56.256 40.183-19.457 83.116-29.397 126.894-36.376 34.261-5.499 35.319-6.979 35.742-42.509 0.211-16.073 0.211-32.358 0.423-48.431 0.211-20.303 9.94-32.146 30.878-32.569 23.687-0.423 47.585-0.423 71.272 0.211 19.457 0.423 29.397 10.997 29.397 30.666 0 21.995 1.057 44.201 0.211 66.196-1.057 22.418 8.671 33.838 30.243 39.76 49.7 13.535 91.998 40.183 124.568 79.943 90.518 109.975 56.045 270.918-72.118 341.768z" />
<glyph unicode="&#xe91f;" glyph-name="like" data-tags="like" d="M255.008 170.78c0-19.111-15.493-34.604-34.604-34.604s-34.604 15.493-34.604 34.604c0 19.111 15.493 34.604 34.604 34.604s34.604-15.493 34.604-34.604zM1003.236 357.455c0 17.006-5.268 32.8-14.242 45.858 21.132 14.67 35.006 39.094 35.006 66.708 0 44.756-36.412 81.17-81.166 81.17h-213.39l13.516 30.304c19.76 44.312 29.832 91.384 29.936 139.902 0 0 0.122 59.214 0.122 59.546 0 45.998-37.422 83.422-83.422 83.422-34.192 0-64.564-20.482-77.376-52.184-0.564-1.398-19.978-58.592-19.978-58.592-17.506-50.858-48.566-95.978-89.816-130.49l-98.984-82.806h-57.224v26.122c0 27.442-22.326 49.77-49.77 49.77h-246.68c-27.444 0-49.77-22.326-49.77-49.77v-485.011c0-27.442 22.326-49.77 49.77-49.77h246.676c27.442 0 49.77 22.326 49.77 49.77v38.96h31.242l31.018-14.994c73.376-35.468 155.236-54.216 236.734-54.216h235.332c44.756 0 81.17 36.412 81.17 81.166 0 17.006-5.268 32.8-14.242 45.858 21.132 14.67 35.006 39.094 35.006 66.708 0 17.006-5.268 32.8-14.242 45.858 21.132 14.67 35.004 39.096 35.004 66.712zM296.445 81.404h-246.676v485.013h246.676l0.032-485.011c0 0-0.010-0.002-0.032-0.002zM942.834 438.619h-35.412c-13.744 0-24.884-11.14-24.884-24.884s11.14-24.884 24.884-24.884h14.648c17.314 0 31.4-14.084 31.4-31.4s-14.084-31.4-31.4-31.4h-35.408c-13.744 0-24.884-11.14-24.884-24.884s11.14-24.884 24.884-24.884h14.648c17.312 0 31.4-14.084 31.4-31.4 0-17.312-14.084-31.398-31.4-31.398h-35.408c-13.744 0-24.884-11.14-24.884-24.884s11.14-24.884 24.884-24.884h14.648c17.314 0 31.4-14.088 31.4-31.4-0.004-17.308-14.090-31.392-31.404-31.392h-235.332c-74.042 0-148.412 17.032-215.074 49.254l-36.15 17.474c-3.376 1.632-7.080 2.482-10.83 2.482h-36.942v320.391h66.26c5.838 0 11.49 2.052 15.966 5.798l105.914 88.604c48.2 40.32 84.488 93.042 104.942 152.464 0 0 19.8 57.646 19.916 58.038 5.58 11.704 17.28 19.164 30.382 19.164 18.556 0 33.652-15.096 33.652-33.652 0-0.33-0.122-59.442-0.122-59.442-0.088-41.528-8.708-81.812-25.622-119.738l-28.986-65.004c-2.54-5.698-2.748-11.836-1.060-17.37 0.142-0.49 5.516-17.972 23.892-17.972h251.486c17.312 0 31.398-14.084 31.398-31.4-0.006-17.312-14.090-31.398-31.402-31.398z" />
<glyph unicode="&#xe920;" glyph-name="air-conditioner" data-tags="air-conditioner" d="M934 959.68h-844c-49.628 0-90-40.372-90-90v-480c0-49.628 40.372-90 90-90h844c49.628 0 90 40.372 90 90v480c0 49.63-40.372 90-90 90zM838.474 899.68c-12.426-34.844-45.414-60-84.474-60h-484c-39.060 0-72.048 25.156-84.474 60h652.948zM634 659.68h-244c-39.546 0-39.708 60 0 60h244c39.546 0 39.708-60 0-60zM844 359.68h-664v60h664v-60zM844 479.68h-664v30c0 16.552 13.448 30 30 30h604c16.552 0 30-13.448 30-30v-30zM318.516 233.088c-34.094 22.542-67.51-28.806-34.042-51.094 24.56-16.394 24.662-52.444 0-68.906-61.022-40.64-61.006-130.464 0-171.094 34.032-22.752 67.562 28.77 34.042 51.094-24.6 16.462-24.6 52.444 0 68.906 61.088 40.686 61.006 130.466 0 171.094zM532.516 233.088c-33.954 22.496-67.668-28.7-34.042-51.094 24.56-16.394 24.662-52.444 0-68.906-61.022-40.64-61.006-130.464 0-171.094 33.59-22.456 68.118 28.4 34.042 51.094-24.6 16.462-24.6 52.444 0 68.906 61.088 40.686 61.006 130.466 0 171.094zM742.516 233.088c-33.848 22.472-67.72-28.666-34.042-51.094 24.56-16.394 24.662-52.444 0-68.906-61.022-40.64-61.006-130.464 0-171.094 34.032-22.752 67.562 28.77 34.042 51.094-24.6 16.462-24.6 52.444 0 68.906 61.088 40.686 61.006 130.466 0 171.094z" />
<glyph unicode="&#xe921;" glyph-name="business-person" data-tags="business-person" d="M729.627 742.386c0-120.185-97.429-217.614-217.614-217.614s-217.614 97.429-217.614 217.614c0 120.185 97.429 217.614 217.614 217.614s217.614-97.429 217.614-217.614zM604.306 509.959h-184.638c-153.595 0-278.587-124.979-278.587-278.599v-225.855l0.569-3.526 15.572-4.866c146.593-45.793 273.973-61.099 378.818-61.099 204.747 0 323.444 58.407 330.8 62.11l14.535 7.381h1.529v225.855c0.013 153.62-124.954 278.599-278.599 278.599zM555 71.66l-39.84-58.306c-0.543-0.796-1.403-1.264-2.351-1.264-0.025 0-0.051 0-0.076 0-0.935 0-1.833 0.493-2.351 1.315l-37.008 58.344c-0.316 0.493-0.468 1.087-0.442 1.719l18.517 283.162c0.101 1.504 1.327 2.642 2.844 2.642h38.411c1.504 0 2.743-1.138 2.869-2.642l19.895-283.137c0.076-0.67-0.114-1.289-0.468-1.833zM536.976 367.84h-45.666l-39.701 82.055c0 7.874 6.37 14.219 14.245 14.219h95.34c7.849 0 14.219-6.345 14.219-14.219l-38.437-82.055z" />
<glyph unicode="&#xe922;" glyph-name="free-wifi" data-tags="free-wifi" d="M997.517 626.637c20.933-21.139 20.933-55.206 0-76.127-10.461-10.461-24.215-15.802-37.968-15.802s-27.491 5.342-37.968 15.802c-226.337 226.337-594.476 226.337-820.609 0-21.139-20.933-55.205-20.933-76.127 0-20.933 21.139-20.933 55.206 0 76.127 268.202 267.996 704.46 267.996 972.671 0zM171.518 403.652l-4.362 4.33 0.494 0.224c-16.058 21.191-14.48 51.467 4.726 70.681 186.743 186.947 490.848 186.947 677.583 0 19.837-20.027 20.88-51.658 3.123-72.732l0.472-0.221-142.817-140.954c-1.828-2.649-3.904-5.16-6.263-7.511-10.461-10.461-24.215-15.802-37.968-15.802s-27.491 5.342-37.968 15.802c-64.642 64.847-170.121 64.847-234.751 0-18.717-18.543-47.589-20.661-68.482-6.352l-0.154-0.116-0.749 0.749c-2.357 1.684-4.62 3.589-6.737 5.71-1.984 1.991-3.767 4.104-5.373 6.32l-138.606 137.702c-0.439 0.412-0.877 0.836-1.313 1.265-0.29 0.293-0.592 0.594-0.871 0.903zM582.796 140.301c0-39.557-32.065-71.622-71.622-71.622s-71.622 32.065-71.622 71.622c0 39.557 32.065 71.622 71.622 71.622s71.622-32.065 71.622-71.622zM353.319 447.892v31.051h50.306v21.87h-78.913v-122.577h28.608v47.706h41.892v21.965h-41.892zM469.744 444.619c-2.695-0.955-5.968-1.425-9.838-1.425h-11.436v36.347h11.436c7.355 0 12.766-1.52 16.235-4.543 3.536-3.023 5.295-7.238 5.295-12.622 0-2.695-0.387-5.217-1.175-7.566-0.787-2.297-2.039-4.314-3.792-6.064-1.732-1.732-3.983-3.118-6.737-4.12zM494.566 378.233h25.74l-26.086 42.661c-1.288 1.965-2.752 3.64-4.37 5.044-1.626 1.464-3.369 2.659-5.217 3.619 3.986 1.52 7.489 3.446 10.512 5.807 3.082 2.349 5.661 5.023 7.739 7.99 2.081 3.023 3.64 6.314 4.716 9.838 1.061 3.536 1.598 7.295 1.598 11.279 0 5.217-0.903 10.040-2.695 14.477-1.789 4.427-4.678 8.279-8.663 11.531-3.926 3.253-9.027 5.775-15.306 7.566-6.22 1.848-13.764 2.773-22.636 2.773h-39.878v-122.577h28.435v45.35h7.238c2.194 0 3.87-0.367 5.044-1.097 1.175-0.674 2.246-1.771 3.196-3.278l20.365-35.593c2.081-3.588 5.498-5.39 10.261-5.39zM559.209 450.337v28.608h50.306v21.87h-78.913v-122.577h78.913v21.87h-50.306v29.192h38.536v21.036h-38.536zM655.678 450.337v28.608h50.306v21.87h-78.913v-122.577h78.913v21.87h-50.306v29.192h38.536v21.036h-38.536z" />
<glyph unicode="&#xe923;" glyph-name="gym" data-tags="gym" d="M50.381 397.645h63.084v-101.404c0-32.428 26.316-58.748 58.755-58.748 10.169 0 19.602 2.827 27.929 7.386v-28.452c0-32.461 26.32-58.763 58.774-58.763 32.428 0 58.755 26.32 58.755 58.763v181.218h373.828v-181.218c0-32.461 26.305-58.763 58.763-58.763 32.443 0 58.748 26.32 58.748 58.763v28.49c8.337-4.577 17.789-7.386 27.947-7.386 32.461 0 58.766 26.286 58.766 58.748v101.386h77.908c27.832 0 50.358 22.523 50.358 50.355 0 27.825-22.523 50.358-50.358 50.358h-77.908v101.367c0 32.443-26.305 58.755-58.766 58.755-10.158 0-19.61-2.824-27.947-7.386v28.482c0 32.45-26.305 58.748-58.748 58.748-32.458 0-58.763-26.312-58.763-58.748v-181.218h-373.828v181.196c0 32.454-26.312 58.748-58.755 58.748-32.432 0-58.774-26.316-58.774-58.748v-28.464c-8.341 4.563-17.756 7.368-27.929 7.368-32.443 0-58.755-26.298-58.755-58.755v-101.371h-63.084c-27.832 0-50.381-22.549-50.381-50.358 0-27.806 22.549-50.347 50.381-50.347z" />
<glyph unicode="&#xe924;" glyph-name="meeting-room" data-tags="meeting-room" d="M512 559.409c110.43 0 200.27 89.84 200.27 200.27s-89.84 200.273-200.27 200.273-200.27-89.843-200.27-200.273 89.84-200.27 200.27-200.27zM415.123 781.079c11.823 11.816 30.979 11.816 42.801 0l28.917-28.92 79.234 79.238c11.823 11.816 30.979 11.816 42.801 0 11.819-11.819 11.819-30.982 0-42.801l-100.635-100.635c-5.91-5.906-13.653-8.864-21.401-8.864s-15.491 2.955-21.401 8.864l-50.317 50.317c-11.819 11.819-11.819 30.985 0 42.801zM117.794 667.388c64.953 0 117.798 52.845 117.798 117.798s-52.845 117.798-117.798 117.798-117.794-52.845-117.794-117.798 52.841-117.798 117.794-117.798zM11.609 498.762v-244.639c0-56.189 45.549-101.738 101.738-101.738h132.592v-180.689c0-13.764 11.157-24.924 24.924-24.924h117.491c13.764 0 24.924 11.157 24.924 24.924v260.637c0 47.432-38.45 85.878-85.878 85.878h-103.417v180.552c0 58.644-47.542 106.186-106.186 106.186-58.647 0.003-106.189-47.538-106.189-106.186zM906.206 667.388c64.953 0 117.794 52.845 117.794 117.798s-52.841 117.798-117.794 117.798-117.798-52.845-117.798-117.798 52.845-117.798 117.798-117.798zM800.016 498.762v-180.552h-103.414c-47.432 0-85.882-38.45-85.882-85.878v-260.637c0-13.764 11.157-24.924 24.924-24.924h117.491c13.764 0 24.924 11.157 24.924 24.924v180.689h132.592c56.189 0 101.738 45.549 101.738 101.738v244.639c0 58.644-47.542 106.186-106.186 106.186-58.647 0.003-106.189-47.538-106.189-106.186zM688.238 436.577c16.715 0 30.261 13.55 30.261 30.261 0 16.715-13.55 30.261-30.261 30.261h-352.477c-16.715 0-30.261-13.55-30.261-30.261 0-16.715 13.55-30.261 30.261-30.261h145.973v-470.264c0-16.715 13.55-30.261 30.261-30.261s30.261 13.55 30.261 30.261v470.264h145.98z" />
<glyph unicode="&#xe925;" glyph-name="no-smaoking" data-tags="no-smaoking" d="M651.628 419.428h-633.202c-10.163 0-18.426-8.249-18.426-18.426v-158.521c0-10.183 8.26-18.435 18.426-18.435h633.202c10.16 0 18.429 8.252 18.429 18.435v158.521c-0.009 10.175-8.269 18.426-18.429 18.426zM896.594 419.428h-139.901c-10.189 0-18.443-8.249-18.443-18.426v-158.521c0-10.183 8.255-18.435 18.443-18.435h139.901c10.166 0 18.429 8.252 18.429 18.435v158.521c0 10.175-8.263 18.426-18.429 18.426zM752 502.5c4.688-2.844 9.856-4.198 14.967-4.198 9.762 0 19.282 4.946 24.721 13.906l70.238 115.727c7.239 11.924 4.918 27.315-5.507 36.582l-83.177 73.956 57.739 95.152c8.277 13.636 3.94 31.408-9.7 39.686-13.642 8.28-31.406 3.931-39.683-9.708l-70.238-115.735c-7.239-11.924-4.918-27.315 5.507-36.58l83.172-73.953-57.745-95.145c-8.283-13.642-3.934-31.414 9.705-39.691zM1014.306 664.52l-83.177 73.956 57.756 95.152c8.266 13.636 3.922 31.408-9.717 39.686-13.639 8.28-31.406 3.931-39.689-9.708l-70.241-115.738c-7.233-11.924-4.918-27.315 5.513-36.58l83.172-73.953-57.751-95.145c-8.277-13.642-3.928-31.411 9.711-39.689 4.682-2.844 9.856-4.196 14.962-4.196 9.768 0 19.288 4.944 24.721 13.904l70.244 115.727c7.233 11.921 4.918 27.31-5.504 36.582zM489.58 651.816c8.656 13.111 26.3 16.725 39.41 8.071s16.725-26.297 8.073-39.408l-388.581-588.749c-8.654-13.113-26.297-16.725-39.409-8.073s-16.725 26.297-8.071 39.41l388.578 588.749z" />
<glyph unicode="&#xe926;" glyph-name="parking" data-tags="parking" d="M726.171 516.396c-3.295 0-6.677-0.473-10.059-1.402l-38.221-10.528-39.683 96.68c-11.246 27.388-44.481 49.674-74.086 49.674h-371.427c-29.609 0-62.84-22.286-74.082-49.674l-39.634-96.545-37.748 10.397c-3.378 0.928-6.76 1.402-10.055 1.402-18.066 0-31.176-13.801-31.176-32.81v-22.53c0-22.192 18.058-40.25 40.25-40.25h4.325l-6.407-15.605c-10.446-25.438-18.949-68.521-18.949-96.034v-192.064c0-22.192 18.058-40.25 40.25-40.25h52.567c22.192 0 40.25 18.058 40.25 40.25v47.96h452.239v-47.96c0-22.192 18.058-40.25 40.25-40.25h52.56c22.192 0 40.25 18.058 40.25 40.25v192.060c0 27.509-8.503 70.592-18.949 96.034l-6.407 15.605h4.862c22.192 0 40.25 18.058 40.25 40.25v22.53c0.004 19.009-13.11 32.81-31.172 32.81zM107.832 442.666l60.037 146.234c6.726 16.383 26.716 29.789 44.425 29.789h332.229c17.709 0 37.699-13.403 44.425-29.789l60.037-146.234c6.722-16.383-2.262-29.789-19.971-29.789h-501.207c-17.713 0.004-26.697 13.407-19.975 29.789zM241.85 257.697c0-8.856-7.248-16.097-16.097-16.097h-114.047c-8.856 0-16.101 7.244-16.101 16.097v54.731c0 8.853 7.244 16.097 16.101 16.097h114.047c8.849 0 16.097-7.244 16.097-16.097v-54.731zM660.129 257.697c0-8.856-7.248-16.097-16.097-16.097h-114.047c-8.849 0-16.097 7.244-16.097 16.097v54.731c0 8.853 7.248 16.097 16.097 16.097h114.047c8.849 0 16.097-7.244 16.097-16.097v-54.731zM973.657 819.147h-190.636c-27.76 0-50.343-22.586-50.343-50.343v-190.64c0-27.76 22.586-50.346 50.343-50.346h76.529v-427.872c0-10.378 8.409-18.787 18.787-18.787s18.787 8.409 18.787 18.787v427.868h76.532c27.76 0 50.343 22.586 50.343 50.346v190.64c0 27.76-22.582 50.346-50.343 50.346zM930.48 661.081c-10.964-9.871-27.114-14.876-47.998-14.876h-27.606c-3.314 0-6.012-2.702-6.012-6.016v-46.551c0-5.058-4.114-9.168-9.172-9.168h-20.907c-5.061 0-9.172 4.114-9.172 9.168v159.674c0 5.061 4.114 9.176 9.172 9.176h52.665c34.888 0 47.912-5.257 58.613-14.339 11.287-9.578 17.006-24.247 17.006-43.609-0.004-18.919-5.58-33.536-16.589-43.459zM900.597 723.936c-5.095 3.848-14.109 5.802-26.787 5.802h-18.934c-3.314 0-6.012-2.698-6.012-6.008v-38.259c0-3.31 2.698-6.008 6.012-6.008h11.344c4.167 0 10.9 0.308 15.007 0.688 3.987 0.364 15.24 1.995 19.37 5.114 4.956 3.75 7.47 10.235 7.47 19.272 0 9.123-2.514 15.65-7.47 19.4z" />
<glyph unicode="&#xe927;" glyph-name="restaurant" data-tags="restaurant" d="M760.271 137.085c169.503 6.815 244.842 83.962 244.842 178.375 0 82.009-56.91 151.011-182.967 172.204 0.561 30.501 0.603 59.922 0.603 87.39h-803.862c0-179.601 0.208-440.484 161.566-565.087-97.925-7.501-161.566-19.427-161.566-32.849 0-22.731 179.954-41.119 401.941-41.119s401.921 18.388 401.921 41.119c0 13.422-63.642 25.369-161.545 32.849 43.799 33.805 75.817 77.563 99.067 127.117zM819.154 409.562c70.727-16.393 83.359-51.071 82.549-95.971-0.893-50.988-15.666-85.5-112.24-97.384 17.474 62.062 25.743 128.696 29.691 193.356zM115.918 512.722h125.663c-56.328-166.22 38.709-429.222 38.688-429.222-205.448 157.473-164.35 429.222-164.35 429.222zM486.589 683.389c15.978 144.778 335.62 72.347 269.007 260.301-10.181 28.735-56.203 16.352-45.918-12.654 29.213-82.404-81.78-92.439-138.295-111.326-67.88-22.689-124.063-60.629-132.415-136.321-3.366-30.501 44.298-30.169 47.622 0zM713.48 784.7c-62.333-14.69-119.305-41.389-138.732-106.921-8.747-29.525 37.213-42.033 45.918-12.654 21.442 72.368 116.5 73.573 177.191 91.193 65.179 18.928 102.475 64.078 93.52 133.392-3.906 30.024-51.528 30.398-47.622 0 10.825-83.817-66.301-89.904-130.275-105.010z" />
<glyph unicode="&#xe928;" glyph-name="room-service" data-tags="room-service" d="M123.708 441.339h776.009c8.268 0 16.099 4.579 21.317 10.987 5.225 6.408 7.284 15.256 5.617 23.352-19.385 94.096-71.683 179.966-146.218 241.411-68.406 56.388-152.698 90.057-242.078 95.891v44.456c17.188 9.526 28.072 27.257 28.072 47.56 0 30.327-24.387 55.003-54.718 55.003s-55.433-24.676-55.433-55.003c0-20.303 13.321-38.031 27.072-47.56v-44.422c-85.942-5.724-172.95-39.2-241.504-95.712-74.536-61.442-125.974-147.098-145.359-241.195-1.667-8.096 0.536-17.374 5.758-23.782 5.225-6.408 13.197-10.987 21.465-10.987zM485.487 705.67c15.311 0.77 28.045-11.018 28.749-26.192s-11.021-28.045-26.192-28.749c-82.099-3.819-161.265-55.44-206.615-134.709-5.081-8.876-14.356-13.847-23.899-13.847-4.631 0-9.323 1.169-13.63 3.634-13.184 7.542-17.756 24.346-10.217 37.529 54.604 95.444 151.090 157.645 251.803 162.334zM965.776 386.337h-907.548c-31.324 0-56.722-25.398-56.722-56.722s25.398-56.722 56.722-56.722h188.388c-41.101-10.145-71.473-44.972-71.473-86.159 0-49.114 43.181-89.167 96.255-89.167h187.773c22.747 0 41.373-18.313 41.373-41.060v-120.511h347.206v243.649c0 44.824-29.688 82.587-71.239 93.247h189.265c31.324 0 56.722 25.398 56.722 56.722s-25.398 56.722-56.722 56.722z" />
<glyph unicode="&#xe929;" glyph-name="smoking-area" data-tags="smoking-area" d="M651.626 316.651h-633.2c-10.163 0-18.426-8.249-18.426-18.426v-158.52c0-10.183 8.26-18.435 18.426-18.435h633.2c10.16 0 18.429 8.252 18.429 18.435v158.52c-0.009 10.175-8.269 18.426-18.429 18.426zM896.592 316.651h-139.901c-10.189 0-18.443-8.249-18.443-18.426v-158.52c0-10.183 8.255-18.435 18.443-18.435h139.901c10.166 0 18.429 8.252 18.429 18.435v158.52c0 10.175-8.263 18.426-18.429 18.426zM751.998 399.723c4.688-2.844 9.856-4.198 14.967-4.198 9.762 0 19.282 4.946 24.721 13.906l70.238 115.726c7.239 11.924 4.918 27.315-5.507 36.582l-83.177 73.955 57.739 95.152c8.277 13.636 3.94 31.408-9.7 39.686-13.642 8.28-31.405 3.931-39.683-9.708l-70.238-115.734c-7.239-11.924-4.918-27.315 5.507-36.579l83.171-73.953-57.745-95.144c-8.283-13.642-3.934-31.414 9.705-39.691zM1014.303 561.742l-83.177 73.955 57.756 95.152c8.266 13.636 3.922 31.408-9.717 39.686-13.639 8.28-31.405 3.931-39.688-9.708l-70.241-115.737c-7.233-11.924-4.918-27.315 5.513-36.579l83.171-73.953-57.751-95.144c-8.277-13.642-3.928-31.411 9.711-39.688 4.682-2.844 9.856-4.196 14.962-4.196 9.768 0 19.288 4.944 24.721 13.904l70.243 115.726c7.233 11.921 4.918 27.309-5.504 36.582z" />
<glyph unicode="&#xe92a;" glyph-name="spa" data-tags="spa" d="M511.405 762.543c112.331 33.134 197.144 81.43 181.834 133.24-15.283 51.828-213.281 83.853-325.647 50.705-112.402-33.15-96.563-118.919-81.281-170.728 15.279-51.845 112.698-46.398 225.094-13.216zM289.083 607.558c-16.137-64.895 161.703-87.105 321.423-126.903 159.755-39.814 295.948-45.262 312.118 19.638 16.137 64.877 29.699 172.144-130.056 211.942-159.72 39.8-487.315-39.798-503.485-104.676zM386.83 460.936c-32.899 0-60.192-4.504-83.159-12.128 33.428-20.508 52.504-62.8 55.439-101.656 45.641 32.47 108.934 25.23 138.834-26.318 30.128-52.32 1.781-111.541-48.578-146.273 24.95-11.071 43.892-31.681 53.163-55.095 6.467-0.081 12.905-0.23 19.47-0.23 184.375 0 469.002 35.144 469.002 120.168-0.002 85.026-419.796 221.532-604.171 221.532zM256.248 206.241c57.52 32.522 78.277 108.339 66.63 155.414-8.845 35.723-29.799 66.645-66.63 66.645-36.827 0-59.27-29.386-59.27-66.182 0-12.889 6.965-26.55 16.008-41.993 19.7-33.793 41.313-69.399 43.261-113.884zM253.279 158.076c-36.17-20.411-57.819-57.899-66.002-94.76-4.819-21.632-5.016-43.048-0.659-60.654 8.809-35.739 29.834-66.663 66.661-66.663 36.759 0 59.27 29.386 59.27 66.199 0 12.872-6.965 26.501-15.973 41.927-19.735 33.811-41.348 69.304-43.297 113.952zM93.359 215.909c33.793-3.35 88.904 6.5 141.274-20.427 0.035 3.484-0.199 13.019-1.252 13.481-6.337 59.846-56.2 109.278-99.99 121.949-35.144 10.233-73 6.766-91.081-24.401-23.599-40.938 8.082-86.212 51.049-90.602zM393.927 149.399c-0.033-0.017-0.066-0.017-0.102-0.033-33.101-0.232-75.174-3.217-118.966 19.472-0.529-74.086 77.342-157.504 151.87-139.18 12.3 3.024 32.008 13.595 40.426 28.149 21.58 37.453 0.493 91.593-73.228 91.593zM233.182 171.408c-26.795 15.741-61.546 21.961-101.542 13.067-23.559-5.277-49.299-16.663-66.363-33.049-45.772-43.873-38.71-90.272-4.72-111.508 21.319-13.2 46.331-9.833 67.223 2.261 31.909 18.384 40.621 87.783 105.402 129.229zM370.793 178.173c25.010 4.457 55.242 17.194 73.491 34.736 32.207 30.984 45.508 71.248 15.442 102.809-18.116 18.979-49.036 23.151-78.043 6.455-31.844-18.417-40.592-87.849-105.306-129.262 24.521-14.474 58.146-21.172 94.416-14.738z" />
<glyph unicode="&#xe92b;" glyph-name="swimming" data-tags="swimming" d="M908.551 249.822c-10.667-12.233-26.195-19.28-42.539-19.28-16.246 0-31.806 7.014-42.441 19.28-33.698 38.624-82.957 63.058-138.447 63.058-55 0-103.868-23.912-137.534-61.884-10.7-12.070-26-18.953-42.147-18.953-16.115 0-31.48 6.851-42.213 18.921-33.731 37.972-82.468 61.916-137.501 61.916-54.968 0-103.835-23.912-137.468-61.916-10.765-12.070-26.065-18.921-42.245-18.921v0c-16.050 0-31.48 6.851-42.147 18.888-26.587 30.012-62.797 50.694-103.868 58.328v-111.371c8.808-4.371 16.931-10.276 23.749-18.007 31.023-34.905 75.552-54.935 122.299-54.935 46.714 0 91.309 19.997 122.234 55 14.876 16.702 35.329 25.902 57.48 25.902 22.215 0 42.637-9.199 57.414-25.934 30.991-34.938 75.552-55 122.299-55 46.682 0 91.276 20.062 122.201 55 14.843 16.735 35.297 25.934 57.512 25.934 30.208 0 49.161-16.572 57.773-26.391 30.991-35.558 75.846-55.979 123.245-55.979 47.236 0.065 92.124 20.454 123.050 55.979 6.133 7.014 17.779 17.257 34.742 22.64v108.272c-45.932-5.807-86.513-27.435-115.449-60.546zM927.146 486.396c0-72.913-59.108-132.021-132.021-132.021s-132.021 59.108-132.021 132.021c0 72.913 59.108 132.021 132.021 132.021s132.021-59.108 132.021-132.021zM489.915 274.615c7.829-8.743 23.096-8.808 30.958 0.033 33.764 38.004 79.467 62.601 128.824 70.724 3.393 20.128 2.349 41.332-4.893 61.916-3.817 10.798-45.801 151.822-45.801 151.822-0.065 0.294-5.089 29.36 12.755 55.49 17.681 25.869 54.707 43.615 106.902 51.445 29.229 4.371 49.389 31.578 45.051 60.807-4.273 29.229-31.284 49.422-60.872 45.051-83.577-12.462-144.025-45.051-179.453-96.822-44.105-64.428-30.534-132.086-28.544-140.6l11.352-45.997c-6.916-1.207-13.897-2.61-20.682-5.024l-215.957-76.237c-48.411-17.094-79.532-60.938-82.957-108.99 38.983 32.1 88.079 50.336 139.23 50.336 62.601 0.065 122.43-26.946 164.088-73.954z" />
<glyph unicode="&#xe92c;" glyph-name="wifi" data-tags="wifi" d="M166.481 479.339c-21.346-21.346-21.346-56.087 0-77.642 21.346-21.346 56.087-21.346 77.642 0 147.751 147.751 388.212 147.751 535.962 0 10.673-10.673 24.695-16.114 38.717-16.114s28.043 5.441 38.717 16.114c21.346 21.346 21.346 56.087 0 77.642-190.443 190.653-500.594 190.653-691.038 0zM314.65 331.17c-21.346-21.346-21.346-56.087 0-77.642 21.346-21.346 56.087-21.346 77.642 0 65.923 66.132 173.492 66.132 239.415 0 10.673-10.673 24.695-16.114 38.717-16.114s28.043 5.441 38.717 16.114c21.346 21.346 21.346 56.087 0 77.433-108.616 109.034-285.665 109.034-394.49 0.209zM585.038 134.030c0-40.338-32.7-73.038-73.038-73.038s-73.038 32.7-73.038 73.038c0 40.338 32.7 73.038 73.038 73.038s73.038-32.7 73.038-73.038zM1007.99 630.020c-273.527 273.318-718.453 273.318-991.98 0-21.346-21.346-21.346-56.087 0-77.642 21.346-21.346 56.087-21.346 77.642 0 230.625 230.834 606.071 230.834 836.905 0 10.673-10.673 24.695-16.114 38.717-16.114s28.043 5.441 38.717 16.114c21.346 21.346 21.346 56.087 0 77.642z" />
<glyph unicode="&#xe92d;" glyph-name="success" data-tags="success" d="M512 960c-282.309 0-512-229.671-512-512s229.691-512 512-512 512 229.671 512 512-229.691 512-512 512zM797.44 618.752l-315.077-354.462c-7.759-8.724-18.57-13.214-29.46-13.214-8.645 0-17.329 2.836-24.596 8.625l-196.923 157.538c-16.975 13.568-19.732 38.361-6.144 55.355 13.568 16.994 38.38 19.751 55.355 6.164l167.719-134.164 290.245 326.518c14.415 16.266 39.345 17.723 55.591 3.269 16.266-14.474 17.743-39.365 3.289-55.631z" />
<glyph unicode="&#xe92e;" glyph-name="half-star" data-tags="half-star" d="M1020.859 568.358c-7.56 23.193-27.743 40.109-51.898 43.568l-276.146 40.109-123.401 250.261c-10.828 21.913-33.061 35.752-57.472 35.752s-46.645-13.839-57.472-35.752l-123.465-250.199-276.146-40.107c-24.155-3.524-44.209-20.439-51.704-43.633-7.56-23.193-1.282-48.63 16.21-65.673l199.839-194.777-47.159-275.057c-4.1-24.026 5.766-48.31 25.499-62.661 11.084-8.136 24.284-12.237 37.609-12.237 10.186 0 20.439 2.435 29.793 7.368l246.993 129.872 246.931-129.808c9.354-4.997 19.669-7.433 29.793-7.433 13.263 0 26.526 4.1 37.738 12.237 19.734 14.351 29.602 38.635 25.437 62.661l-47.157 275.057 199.839 194.777c17.555 17.043 23.899 42.48 16.337 65.673zM735.872 330.269l52.795-308.245-276.724 145.506v706.447l138.393-280.44 309.463-44.977-223.927-218.291z" />
<glyph unicode="&#xe92f;" glyph-name="star" data-tags="star" d="M21.866 502.833l220.825-187.188-68.678-281.461c-13.491-52.5 44.44-95.592 91.548-65.982l246.439 152.204 246.429-152.175c45.798-28.253 103.681 13.462 91.558 65.991l-68.687 281.433 220.853 187.198c41.715 35.003 20.184 103.681-35.013 107.726l-289.531 21.56-109.064 267.951c-20.193 49.823-91.567 49.823-113.128 0l-109.064-267.961-289.521-21.56c-55.168-5.412-76.728-72.732-34.965-107.735z" />
<glyph unicode="&#xe930;" glyph-name="star-empty" data-tags="star-empty" d="M1019.47 571.297c-11.833 36.134-43.741 61.279-81.565 64.026l-246.596 17.961-93.398 228.846c-14.369 35.077-47.967 57.687-86.002 57.687s-71.633-22.61-86.002-57.898l-93.187-229.058-246.596-17.961c-37.824-2.747-69.943-27.893-81.565-64.026s-0.634-75.226 28.527-99.737l188.909-159.537-59.166-240.046c-6.973-27.893-0.845-56.842 16.693-79.24 17.75-22.61 45.22-36.134 73.535-36.134 17.116 0 34.021 4.86 49.023 14.158l210.040 130.377 210.040-130.377c15.003-9.298 31.907-14.158 49.023-14.158 28.315 0 55.785 13.524 73.535 36.134 17.539 22.399 23.666 51.348 16.693 79.24l-59.166 240.046 188.909 159.537c28.738 24.934 39.937 64.026 28.315 100.16zM944.244 526.922l-206.236-173.906c-10.565-8.875-15.214-23.033-11.833-36.345l64.449-262.022c1.69-6.551 0.423-12.256-3.381-17.116-6.339-8.030-17.75-10.777-27.047-5.071l-229.269 142.21c-5.917 3.592-12.467 5.494-19.018 5.494s-13.312-1.902-19.018-5.494l-229.269-142.421c-9.298-5.705-20.708-3.17-27.047 5.071-3.804 4.86-5.071 10.777-3.381 17.116l64.449 262.022c3.381 13.312-1.268 27.47-11.833 36.345l-206.236 173.906c-9.509 8.030-7.607 17.961-6.339 21.976s5.494 13.101 17.961 13.946l268.995 19.652c13.735 1.057 25.78 9.72 30.851 22.399l101.85 249.766c4.649 11.411 14.792 12.678 18.806 12.678s14.158-1.268 18.806-12.678l101.85-249.766c5.283-12.678 17.116-21.553 30.851-22.399l268.995-19.652c12.256-0.845 16.693-10.143 17.961-13.946 1.479-3.804 3.592-13.735-5.917-21.765z" />
<glyph unicode="&#xe931;" glyph-name="car-compact" data-tags="car-compact" d="M1023.986 400.924c0 20.142-4.548 39.38-12.76 56.98-0.846 4.474-1.814 8.942-3.024 13.474l-88.948 220.438-0.602 1.983c-31.122 92.665-75.404 178.429-187.689 178.429h-429.312c-115.053 0-155.71-87.889-187.513-177.915l-93.041-220.975c-13.451-21.551-21.098-46.203-21.098-72.414v-68.594c0-10.605 1.254-20.979 3.637-30.971-2.317-6.037-3.637-12.543-3.637-19.401v-204.013c0-29.916 24.252-54.173 54.169-54.173h112.409c29.9 0 54.153 24.257 54.153 54.173v102.021h588.947v-102.021c0-29.916 24.257-54.173 54.176-54.173h105.972c29.928 0 54.176 24.257 54.176 54.173v204.036c0 6.833-1.334 13.368-3.633 19.385 2.374 10.008 3.633 20.37 3.633 30.973v68.582h-0.014zM180.152 672.181c35.418 99.926 63.9 130.43 121.5 130.43h429.286c57.177 0 89.015-34.022 121.367-130l64.909-131.537c-21.194 7.849-44.518 12.204-69.022 12.204h-672.398c-22.063 0-43.147-3.548-62.6-9.969l66.958 128.872zM235.91 306.28h-118.604c-21.354 0-38.673 17.335-38.673 38.687 0 21.359 17.319 38.682 38.673 38.682h118.604c21.363 0 38.682-17.323 38.682-38.682 0-21.352-17.33-38.687-38.682-38.687zM654.882 314.028h-275.876c-13.526 0-24.486 10.966-24.486 24.486 0 13.544 10.96 24.506 24.486 24.506h275.876c13.542 0 24.499-10.962 24.499-24.506 0-13.519-10.957-24.486-24.499-24.486zM903.69 306.28h-118.599c-21.372 0-38.682 17.335-38.682 38.687 0 21.359 17.323 38.682 38.682 38.682h118.599c21.372 0 38.696-17.323 38.696-38.682 0-21.352-17.323-38.687-38.696-38.687z" />
<glyph unicode="&#xe932;" glyph-name="map" data-tags="map" d="M512 960c-204.49 0-370.854-166.364-370.854-370.852 0-253.776 331.878-626.334 346.008-642.070 13.272-14.782 36.444-14.756 49.692 0 14.13 15.736 346.008 388.294 346.008 642.070-0.004 204.488-166.366 370.852-370.854 370.852zM512 402.562c-102.884 0-186.584 83.702-186.584 186.586s83.702 186.584 186.584 186.584 186.582-83.702 186.582-186.586-83.7-186.584-186.582-186.584z" />
<glyph unicode="&#xe933;" glyph-name="filter-tool-black-shape" data-tags="filter-tool-black-shape" d="M1019.628 930.934c-8.244 18.876-22.511 28.315-42.87 28.326h-929.538c-20.331 0-34.619-9.45-42.85-28.326-8.226-19.843-4.84-36.798 10.172-50.834l358.031-358.021v-352.939c0-12.604 4.601-23.483 13.797-32.696l185.9-185.895c8.722-9.193 19.611-13.807 32.688-13.807 5.805 0 11.853 1.218 18.149 3.637 18.889 8.236 28.336 22.514 28.336 42.847v538.849l358.019 358.021c15.017 14.036 18.395 30.986 10.167 50.837z" />
<glyph unicode="&#xe934;" glyph-name="briefcase" data-tags="briefcase" d="M640.006 283.429c0-9.905-3.625-18.485-10.856-25.713-7.239-7.247-15.816-10.864-25.721-10.864h-182.855c-9.911 0-18.479 3.617-25.719 10.864-7.237 7.225-10.856 15.806-10.856 25.713v91.425h-384v-274.288c0-25.138 8.949-46.658 26.856-64.561 17.903-17.905 39.431-26.858 64.575-26.858h841.145c25.138 0 46.664 8.953 64.569 26.858 17.911 17.903 26.856 39.423 26.856 64.561v274.288h-383.994v-91.425zM438.852 374.854h146.299v-73.143h-146.299v73.143zM997.142 713.713c-17.903 17.907-39.431 26.856-64.569 26.856h-201.149v91.433c0 15.239-5.33 28.189-16 38.856-10.658 10.662-23.617 15.998-38.85 15.998h-329.144c-15.235 0-28.187-5.336-38.856-15.998s-16-23.615-16-38.856v-91.433h-201.145c-25.142 0-46.67-8.949-64.575-26.856-17.907-17.905-26.856-39.421-26.856-64.565v-219.432h1023.998v219.432c0 25.144-8.943 46.66-26.856 64.565zM658.288 740.568h-292.571v73.147h292.571v-73.147z" />
<glyph unicode="&#xe935;" glyph-name="addon" data-tags="addon" d="M902.095 472.38h-73.143v195.048c0 53.64-43.885 97.525-97.525 97.525h-195.048v73.143c0 68.267-53.638 121.905-121.905 121.905-68.265 0-121.903-53.638-121.903-121.905v-73.143h-195.049c-53.638 0-97.524-43.885-97.524-97.525v-185.295h73.143c73.143 0 131.657-58.513 131.657-131.657s-58.514-131.655-131.657-131.655h-73.143v-185.295c0-53.64 43.886-97.525 97.524-97.525h185.296v73.143c0 73.143 58.513 131.657 131.655 131.657 73.145 0 131.657-58.515 131.657-131.657v-73.143h185.295c53.64 0 97.525 43.885 97.525 97.525v195.048h73.143c68.267 0 121.905 53.638 121.905 121.903 0 68.267-53.638 121.905-121.905 121.905z" />
<glyph unicode="&#xe936;" glyph-name="shape1" data-tags="shape1" horiz-adv-x="150" d="M0 885.213c0 41.303 33.483 74.787 74.787 74.787s74.787-33.483 74.787-74.787v-874.427c0-41.304-33.482-74.787-74.787-74.787s-74.787 33.482-74.787 74.787v874.427z" />
<glyph unicode="&#xe937;" glyph-name="mastercared" data-tags="mastercared" d="M0 761.455v-626.907h1024v626.907h-1024zM606.92 300.968c-36.582 0-70.098 13.132-96.239 34.9-25.799-21.206-58.798-33.907-94.789-33.907-82.645 0-149.562 66.926-149.562 149.562 0 82.596 66.917 149.553 149.562 149.553 35.862 0 68.887-12.684 94.621-33.787 26.133 21.874 59.76 35.023 96.411 35.023 83.076 0 150.738-67.602 150.738-150.684s-67.634-150.661-150.741-150.661zM606.92 569.996c-27.875 0-53.451-9.744-73.68-25.91 20.092-25.457 32.228-57.582 32.228-92.545 0-34.926-12.070-66.983-32.125-92.371 20.264-16.116 45.772-25.87 73.575-25.87 65.296 0 118.39 53.111 118.39 118.344 0 65.296-53.091 118.353-118.387 118.353z" />
<glyph unicode="&#xe938;" glyph-name="visa" data-tags="visa" d="M0 761.401v-626.804h1024v626.804h-1024zM264.979 343.456l-23.559 168.853 57.174-35.916-96.232 76.15h92.492l9.357-99.32c1.177-11.795 2.125-23.381 3.019-35.302 4.809 11.411 10.409 23.891 16.888 37.654l45.817 96.968h60.826l-107.87-209.086c-0.002-0.002-57.913-0.002-57.913-0.002zM417.839 343.456l39.725 209.086h54.436l-39.673-209.086h-54.488zM564.311 340.489c-24.839 0-47.29 5.706-60.036 15.272l-3.738 2.844 18.397 45.377 6.161-3.686c12.359-7.39 28.139-11.709 43.306-11.709 11.586 0 25.191 4.494 25.191 17.028 0 6.548-3.809 12.305-23.278 22.364-20.643 11.148-44.219 27.752-44.219 57.682 0 41.235 34.477 70.058 83.821 70.058 20.188 0 36.354-3.529 49.344-10.69l4.6-2.529-17.395-46.605-6.215 3.406c-2.423 1.352-15.57 8.005-32.616 8.005-17.518 0-24.962-7.619-24.962-14.657 0-7.548 9.638-13.534 25.576-22.433 28.351-14.886 42.183-33.67 42.183-57.349 0.002-43.29-34.579-72.377-86.119-72.377zM777.595 343.456l-4.073 51.065h-47.167l-23.399-51.065h-58.349l101.778 209.086h63.264l24.504-209.086h-56.559zM766.393 488.243c-2.177-5.6-4.405-10.919-6.6-15.622l-15.553-33.791h26.472l-3.265 35.758c-0.263 4.034-0.65 8.686-1.054 13.655z" />
<glyph unicode="&#xe939;" glyph-name="result-page" data-tags="result-page" horiz-adv-x="1262" d="M1107.168 281.105c0-42.146 18.514-79.847 47.975-105.564 61.49 2.423 107.032 18.177 107.032 123.068v380.246c0 34.335-27.974 62.342-62.572 62.342h-92.572l0.137-460.092zM268.315 560.095c20.406 4.309 41.489 6.732 63.111 6.732 35.542 0 69.598-6.193 101.22-17.504h481.644c18.654 0 33.784-15.079 33.784-33.662s-15.13-33.663-33.784-33.663h-373.666c25.542-24.774 46.625-53.859 62.031-86.308h311.635c18.654 0 33.784-15.081 33.784-33.662 0-18.583-15.13-33.662-33.784-33.662h-288.932c4.055-19.524 6.217-39.856 6.217-60.592 0-32.047-5.136-63.016-14.596-92.099-0.135-0.268-0.135-0.539-0.271-0.941l492.323 0.673c-23.115 30.296-35.816 67.324-35.816 105.562v656.006c0 12.657-10.407 23.025-23.107 23.025h-918.963c-12.703 0-23.109-10.368-23.109-23.025v-469.653c41.625 46.185 97.303 79.308 160.279 92.773zM279.128 847.569c18.65 0 633.812 0 633.812 0 18.646 0 33.784-15.081 33.784-33.662s-15.138-33.663-33.784-33.663h-633.812c-18.65 0-33.786 15.081-33.786 33.663s15.136 33.662 33.786 33.662zM279.128 699.994h633.812c18.646 0 33.784-15.081 33.784-33.663s-15.138-33.662-33.784-33.662h-633.812c-18.65 0-33.786 15.081-33.786 33.662s15.136 33.663 33.786 33.663zM50.731-63.998c13.109 0 26.217 4.98 36.083 15.079l92.301 93.581c1.081 1.078 2.027 2.157 2.974 3.366 42.569-28.812 93.923-45.643 149.196-45.643 100.816 0 188.793 56.147 234.065 138.688 2.974 5.52 5.811 11.174 8.514 16.831 2.567 5.52 4.866 11.174 7.027 16.831 0.137 0.268 0.27 0.673 0.405 0.941 10.677 28.682 16.487 59.65 16.487 91.966 0 20.871-2.432 41.203-7.027 60.592-5.675 23.831-14.459 46.453-26.083 67.324-18.92 34.065-45.002 63.418-76.355 86.308-44.057 32.181-98.383 51.166-157.035 51.166-21.758 0-42.84-2.693-63.111-7.54-19.866-4.849-38.786-11.85-56.624-20.87-42.164-21.276-77.977-53.322-103.518-92.505-6.217-9.561-11.893-19.524-16.893-29.89-6.893-14.409-12.568-29.488-16.893-45.108-6.081-22.217-9.325-45.512-9.325-69.615 0-55.068 16.893-106.235 45.813-148.649-1.352-1.078-2.703-2.29-3.92-3.636l-8.244-8.347-12.028-12.253-72.030-72.981c-19.596-19.926-19.325-51.839 0.676-71.363 9.865-9.56 22.704-14.272 35.542-14.272zM268.309 442.952c19.731 7.136 40.948 10.906 63.111 10.906 53.381 0 101.492-22.351 135.681-58.302 18.109-19.121 32.299-42.011 41.083-67.324 6.622-18.988 10.136-39.453 10.136-60.592 0-33.394-8.92-64.768-24.461-91.831-0.27-0.402-0.406-0.808-0.676-1.211-3.378-5.789-7.027-11.446-11.081-16.832-4.325-5.922-9.055-11.579-14.055-16.831-34.19-36.489-82.842-59.379-136.764-59.379-54.597 0-103.788 23.428-137.979 60.726-6.082 6.732-11.758 13.87-16.893 21.275-2.839 4.040-5.406 8.347-7.839 12.657-0.676 1.212-1.351 2.422-2.027 3.769-1.487 2.693-2.838 5.523-4.19 8.216-11.487 24.1-17.974 51.167-17.974 79.578 0.137 80.516 51.76 149.323 123.926 175.175z" />
<glyph unicode="&#xe93a;" glyph-name="warning" data-tags="warning" d="M1014.988 107.868l-449.26 745.058c-11.354 18.83-31.74 30.344-53.73 30.344s-42.376-11.512-53.73-30.344l-449.256-745.058c-11.684-19.378-12.030-43.548-0.902-63.25 11.128-19.704 32.002-31.888 54.63-31.888h898.518c22.628 0 43.502 12.186 54.63 31.888 11.128 19.704 10.784 43.872-0.9 63.25zM512.334 625.546c25.802 0 47.634-14.556 47.634-40.356 0-78.726-9.262-191.858-9.262-270.584 0-20.51-22.494-29.108-38.372-29.108-21.168 0-39.032 8.6-39.032 29.108 0 78.726-9.26 191.858-9.26 270.584 0 25.8 21.168 40.356 48.292 40.356zM512.996 137.964c-29.108 0-50.942 23.816-50.942 50.94 0 27.786 21.832 50.94 50.942 50.94 27.124 0 50.28-23.154 50.28-50.94 0-27.124-23.156-50.94-50.28-50.94z" />
<glyph unicode="&#xe93b;" glyph-name="seat" data-tags="seat" d="M428.768 780.67c40.96 41.223 40.96 107.65 0 148.61-41.223 40.96-107.65 40.96-148.61 0-40.96-41.223-40.96-107.65 0-148.61 40.958-40.96 107.65-40.96 148.61 0zM666.124 277.334h-180.382v193.248c73.255-60.389 189.31-113.164 288.82-113.428v113.428c-87.17-1.051-189.57 45.686-245.236 107.126l-73.519 81.396c-10.24 11.291-22.58 19.956-35.97 26.518-15.49 7.614-32.82 12.079-50.676 12.079h-1.312c-65.378-0.263-118.417-53.039-118.417-118.417v-301.95c0-86.91 70.629-157.538 157.538-157.538h265.977l183.798-183.796 75.355 75.355-265.977 265.979zM196.923 224.82v472.615h-105.026v-472.615c0-144.935 117.63-262.565 262.565-262.565h315.077v105.026h-315.077c-86.91 0-157.538 70.631-157.538 157.538z" />
<glyph unicode="&#xe93c;" glyph-name="sports" data-tags="sports" d="M319.346 922.533c-63.515-25.751-120.508-63.614-169.379-112.471-48.885-48.871-86.706-105.878-112.471-169.379-24.874-61.351-37.495-126.182-37.495-192.683 0-66.487 12.621-131.318 37.495-192.64 25.766-63.515 63.6-120.522 112.471-169.379 48.871-48.885 105.85-86.72 169.379-112.471 61.351-24.902 126.168-37.481 192.669-37.481s131.304 12.621 192.654 37.481c63.501 25.751 120.522 63.586 169.379 112.471 48.885 48.857 86.72 105.835 112.471 169.379 24.874 61.322 37.467 126.154 37.467 192.64 0 66.501-12.607 131.332-37.467 192.683-25.751 63.501-63.614 120.522-112.471 169.379s-105.821 86.72-169.379 112.471c-61.351 24.86-126.154 37.467-192.654 37.467s-131.318-12.607-192.669-37.467zM127.965 232.466c-24.662 15.479-47.385 33.307-67.505 54.304-30.732 86.479-35.939 180.104-15.578 268.975 9.579 18.889 20.474 37.028 32.798 54.403 3.806 5.363 7.329 10.951 11.404 16.158l115.542-68.369c0-0.906 0-1.896 0-2.901-0.297-62.143 6.013-123.833 18.578-184.632 0.042-0.283 0.085-0.439 0.141-0.693l-89.606-140.501c-1.953 0.99-3.891 2.066-5.773 3.254zM471.505-5.055c19.936-10.173 40.438-18.762 61.506-25.751-89.493-3.891-179.878 17.078-259.778 62.921l193.687-34.51c1.486-0.948 3-1.854 4.584-2.66zM470.798 29.908l-228.565 40.735c-26.742 32.472-50.795 66.826-71.467 103.543-5.263 9.338-11.135 18.408-15.592 28.157l89.521 140.359c1.981-0.495 4.188-1.019 6.693-1.684 56.002-14.984 112.995-25.638 170.384-33.986 3.353-0.467 6.155-0.877 8.546-1.132l107.307-185.537c-18.62-26.176-37.453-52.21-56.696-77.962-3.198-4.287-6.593-8.405-10.131-12.494zM851.069 108.945c-18.196-18.21-37.509-34.623-57.728-49.253-3.353 26.798-9.14 53.059-17.304 78.712l114.495 213.595c31.538 14.361 61.959 30.647 90.201 50.838 3.693 2.618 6.763 5.546 9.14 8.744-8.291-110.377-54.559-218.406-138.803-302.635zM845.99 385.956c4.259-8.122 8.461-16.328 12.678-24.648l-110.59-206.294c-0.637-0.141-1.245-0.283-1.882-0.368-59.78-11.164-120.041-17.106-180.812-17.389l-110.363 190.829c17.177 31.892 34.198 63.912 51.078 95.945 11.461 21.733 22.723 43.608 33.972 65.468l228.409 23.459c27.973-41.032 54.474-82.942 77.509-127.002zM799.652 630.651c-10.838-28.624-22.441-56.95-33.972-85.333l-222.509-22.851c-2.66 3.509-5.419 6.961-8.32 10.258-26.275 29.756-52.72 59.327-79.122 88.984 0.241 0.297 0.481 0.524 0.722 0.792-10.654 10.64-21.337 21.28-31.991 31.949l61.945 186.5c4.273 1.132 8.574 2.080 12.918 2.547 33.675 3.424 67.392 7.301 101.152 9.254 20.672 1.16 41.457 1.825 62.483 0.34l153.263-172.747c-5.278-16.668-10.428-33.378-16.569-49.692zM851.069 787.084c42.278-42.306 75.019-90.583 98.167-142.156-28.638 19.71-59.257 35.925-91.446 49.14-5.009 2.066-10.145 3.891-15.366 5.688l-150.858 170.030c1.047 7.343 1.599 14.701 1.825 22.115 57.389-23.36 111.184-58.337 157.678-104.817zM358.454 900.828c0.594-0.439 0.877-0.806 1.217-0.906 34.481-11.914 65.85-29.458 95.422-50.272l-57.87-174.275c-0.297-0.085-0.58-0.17-0.863-0.297-11.843-4.896-23.912-9.282-35.571-14.588-48.036-21.832-94.87-46.013-138.987-75.004l-114.198 67.562c0.17 3.566 0.778 7.188 1.995 10.414 7.669 20.431 15.21 40.976 23.884 60.997 6.678 15.423 14.291 30.322 22.596 44.881 5.433 5.999 11.065 11.942 16.866 17.743 54.234 54.219 118.329 92.719 186.57 115.485-0.354-0.552-0.722-1.132-1.061-1.74z" />
<glyph unicode="&#xe93d;" glyph-name="meals" data-tags="meals" d="M616.156 227.279h-584.977c-6.68-8.088-10.868-18.314-10.868-29.62 0-11.886 4.587-22.636 11.912-30.878h589.967c7.322 8.242 11.902 18.992 11.902 30.878 0 11.307-4.168 21.549-10.851 29.62h-7.086zM327.212-42.415c137.381 0 254.929 6.51 303.423 89.018 15.295 26.005 23.772 59.476 23.772 102.813h-654.407c0-180.725 146.5-191.831 327.212-191.831zM38.003 244.639h616.441c0 66.566-20.007 128.383-54.139 180.063-58.546 88.615-158.94 147.145-273.089 147.145-180.731 0.003-327.215-146.497-327.215-327.209h38.003zM524.223 411.14c15.36-14.804 4.748-37.777-9.689-45.269-14.447-7.495-38.632-2.272-42.59 18.124l-0.16 64.008 52.44-36.863zM305.509 380.586l29.823 56.667 29.087-57.174c6.631-20.246-13.497-35.59-29.764-35.436-16.271 0.131-35.19 16.071-29.146 35.943zM142.457 421.346l53.733 34.784-2.603-64.064c-4.129-20.907-29.182-24.434-43.298-16.362-14.113 8.104-22.819 31.264-7.832 45.642zM1024 742.311h-210.027c1.031 107.302-77.368 195.538-186.815 196.104-23.805 0.128-23.805-36.785 0-36.909 89.797-0.468 150.597-72.017 149.903-159.195h-226.049v-57.672h28.419l18.225-227.166c46.271-58.674 74.113-132.499 74.113-212.83v-17.364h-27.911c4.682-8.903 7.597-18.89 7.597-29.62 0-11.244-3.157-21.686-8.274-30.878h28.618v-17.364c0-57.816-14.65-99.558-38.979-129.84l1.274-15.737h311.469l50.085 680.799h28.35v57.672h0.003z" />
<glyph unicode="&#xe93e;" glyph-name="insurance" data-tags="insurance" d="M1024 412.439c-24.886 17.883-62.657 29.298-104.967 29.298-65.509 0-120.17-27.354-132.886-63.732h-5.458c-12.405 36.615-67.233 64.209-133.027 64.209-42.379 0-80.132-11.487-105.004-29.422v-307.926c0-76.638-62.347-138.98-138.982-138.98s-138.982 62.344-138.982 138.98c0 16.935 13.724 30.657 30.658 30.657s30.658-13.722 30.658-30.657c0-42.824 34.84-77.664 77.665-77.664s77.664 34.84 77.664 77.664v307.425c-24.879 17.945-62.65 29.445-105.049 29.445-65.511 0-120.171-27.354-132.886-63.732h-5.456c-12.407 36.615-67.235 64.209-133.027 64.209-42.284 0-80.036-11.398-104.92-29.261 19.995 218.33 225.43 391.879 481.34 404.803v22.918c0 16.936 13.724 30.658 30.658 30.658s30.658-13.724 30.658-30.658v-22.921c256.090-12.952 461.62-186.755 481.342-405.313zM74.063 871.332c0 0-44.442-87.73-44.442-112.274s19.898-44.442 44.442-44.442 44.442 19.898 44.442 44.442c0 24.546-44.442 112.274-44.442 112.274zM199.883 930.115c0 0-33.339-65.812-33.339-84.226s14.927-33.339 33.339-33.339 33.339 14.927 33.339 33.339-33.339 84.226-33.339 84.226z" />
<glyph unicode="&#xe93f;" glyph-name="remove" data-tags="remove" d="M23.796-30.634c15.838-15.883 36.667-23.807 57.429-23.807 20.773 0 41.59 7.925 57.429 23.807l373.347 373.358 373.347-373.358c15.849-15.883 36.667-23.807 57.429-23.807 20.751 0 41.568 7.925 57.429 23.807 31.721 31.721 31.721 83.136 0 114.857l-373.369 373.347 354.208 354.208c31.732 31.71 31.732 83.147 0 114.857-31.71 31.732-83.125 31.732-114.857 0l-354.197-354.197-354.185 354.208c-31.721 31.732-83.147 31.732-114.846 0-31.732-31.71-31.732-83.147 0-114.857l354.197-354.208-373.336-373.347c-31.754-31.71-31.754-83.125-0.022-114.868z" />
<glyph unicode="&#xe940;" glyph-name="checked1" data-tags="checked" d="M11.815 408.615c-7.877 7.877-11.815 19.692-11.815 27.569s3.938 19.692 11.815 27.569l55.138 55.138c15.754 15.754 39.385 15.754 55.138 0l3.938-3.938 216.615-232.369c7.877-7.877 19.692-7.877 27.569 0l527.754 547.446h3.938c15.754 15.754 39.385 15.754 55.138 0l55.138-55.138c15.754-15.754 15.754-39.385 0-55.138v0l-630.154-653.785c-7.877-7.877-15.754-11.815-27.569-11.815s-19.692 3.938-27.569 11.815l-307.2 330.831-7.877 11.815z" />
<glyph unicode="&#xe941;" glyph-name="add1" data-tags="add1" d="M968.428 519.442h-384.988v384.99c0 17.538-23.815 55.566-71.442 55.566s-71.442-38.030-71.442-55.566v-384.992h-384.99c-17.536 0.002-55.566-23.813-55.566-71.438s38.030-71.442 55.566-71.442h384.992v-384.992c0-17.534 23.813-55.566 71.442-55.566s71.442 38.032 71.442 55.566v384.992h384.992c17.534 0 55.566 23.813 55.566 71.442s-38.036 71.44-55.572 71.44z" />
<glyph unicode="&#xe942;" glyph-name="contact" data-tags="contact" d="M244.185 448c0-21.757-17.628-39.385-39.385-39.385h-78.769c-21.757 0-39.385 17.628-39.385 39.385v0c0 21.757 17.628 39.385 39.385 39.385h78.769c21.759 0 39.385-17.628 39.385-39.385v0zM244.185 700.062c0 21.757-17.628 39.385-39.385 39.385h-78.769c-21.757 0-39.385-17.628-39.385-39.385v0c0-21.757 17.628-39.385 39.385-39.385h78.769c21.759 0 39.385 17.628 39.385 39.385v0zM244.185 195.936c0 21.761-17.628 39.385-39.385 39.385h-78.769c-21.757 0-39.385-17.623-39.385-39.385v0c0-21.757 17.628-39.385 39.385-39.385h78.769c21.759 0 39.385 17.63 39.385 39.385v0zM937.354 833.969v-771.938c0-69.602-56.429-126.031-126.026-126.031h-551.385c-69.6 0-126.031 56.429-126.031 126.031v63.015h70.892c39.086 0 70.892 31.809 70.892 70.892 0 39.086-31.807 70.897-70.892 70.897h-70.897v110.277h70.892c39.086 0 70.892 31.807 70.892 70.892s-31.807 70.892-70.892 70.892h-70.892v110.277h70.892c39.086 0 70.892 31.807 70.892 70.892s-31.807 70.892-70.892 70.892h-70.892v63.011c0 69.6 56.431 126.031 126.031 126.031h551.385c69.6 0 126.031-56.429 126.031-126.031zM437.737 586.414c0-67.111 54.413-121.525 121.525-121.525 67.114 0 121.525 54.413 121.525 121.525s-54.411 121.527-121.525 121.527c-67.109-0.002-121.525-54.416-121.525-121.527zM748.308 289.345c0 74.562-60.462 135.027-135.027 135.027h-108.023c-74.578 0-135.043-60.467-135.043-135.027v-54.022h378.092v54.022z" />
<glyph unicode="&#xe943;" glyph-name="adult" data-tags="adult" d="M516.357 550.4c-28.323 0-55.013 5.265-80.068 15.796s-46.843 25.055-65.362 43.574c-18.519 18.519-33.044 40.306-43.574 65.362s-15.796 51.745-15.796 80.068 5.265 54.831 15.796 79.523c10.53 24.692 25.055 46.298 43.574 64.817s40.306 33.226 65.362 44.119c25.055 10.894 51.745 16.34 80.068 16.34s54.831-5.447 79.523-16.34 46.298-25.6 64.817-44.119 33.226-40.125 44.119-64.817 16.34-51.2 16.34-79.523-5.447-55.013-16.34-80.068-25.6-46.843-44.119-65.362-40.125-33.044-64.817-43.574-51.2-15.796-79.523-15.796zM681.94 507.915c37.765 0 70.627-7.444 98.587-22.332s50.837-34.315 68.63-58.281 31.047-51.378 39.762-82.247c8.715-30.865 13.074-62.27 13.074-94.23v-297.396c0-11.62-5.812-17.43-17.428-17.43h-107.85c-11.615 0-17.43 5.81-17.43 17.43v259.268c0 5.080-1.997 10.53-5.986 16.34-3.994 5.81-10.349 8.715-19.064 8.715s-15.075-2.91-19.064-8.715c-3.994-5.81-5.991-11.257-5.991-16.34v-259.268c0-5.084-1.817-9.26-5.452-12.528s-7.983-4.902-13.072-4.902h-360.579c-11.62 0-17.43 5.81-17.43 17.43v259.268c0 5.080-1.634 10.53-4.902 16.34s-9.986 8.715-20.153 8.715-16.885-2.91-20.153-8.715c-3.268-5.81-4.902-11.257-4.902-16.34v-259.268c0-5.084-1.816-9.26-5.447-12.528s-7.989-4.902-13.072-4.902h-103.489c-12.346 0-18.519 5.81-18.519 17.43v297.396c0 31.955 4.357 63.365 13.072 94.23 8.715 30.871 22.15 58.281 40.306 82.247s41.033 43.393 68.63 58.281 60.641 22.332 99.132 22.332h338.791z" />
<glyph unicode="&#xe944;" glyph-name="infant" data-tags="infant" d="M834.702 504.042c-7.226 3.958-16.166 3.354-22.85-1.542-54.556-39.876-98.168-69.77-126.032-86.438-48.332-28.916-120.936-64.77-173.362-89.77-6.6-3.166-11.154-9.48-11.99-16.75-0.878-7.25 2.046-14.458 7.728-19.062 94.576-76.542 202.438-149.604 258.288-186.334 3.55-2.312 7.644-3.52 11.78-3.52 1.838 0 3.718 0.23 5.514 0.73 5.932 1.562 10.862 5.584 13.618 11.042 15.29 30.396 25.566 62.27 30.536 94.708l3.968 26.376 13.952 250.626c0.464 8.246-3.882 15.996-11.15 19.934zM741.086 69.688c-60.112 39.48-211.67 141.792-320.114 238.77-88.978 79.542-162.376 162.958-208.286 218.938-5.848 7.166-15.748 9.708-24.27 6.396-8.648-3.354-14.12-11.854-13.618-21.084l15.748-281.292 3.76-24.312c24.188-157.084 157.446-271.104 316.814-271.104 88.102 0 173.32 36.916 233.81 101.292 4.302 4.584 6.35 10.834 5.598 17.084-0.71 6.248-4.178 11.854-9.442 15.312zM511.12 960c-175.2 0-321.408-130.876-340.124-304.438-0.836-7.854-0.502-12.812 6.058-17.25 1.504-1.646 5.138-6.292 10.736-13.354 31.998-40.5 129.416-163.75 248.514-272.688 4.010-3.688 9.19-5.604 14.454-5.604 3.092 0 6.182 0.666 9.066 2 41.19 19.23 143.578 67.854 203.982 104 51.132 30.562 142.742 98.688 179.754 126.562 5.054 3.77 8.146 9.562 8.48 15.834l1.296 23.604c-0.002 188.208-153.522 341.334-342.216 341.334zM715.104 621.292c-18.632-99.626-104.268-173.292-203.984-173.292s-185.352 73.666-203.982 173.292c-19.174 10.812-31.288 31-31.288 53.75 0 25.916 16.292 48.646 39.644 57.666 23.566 67.54 79.144 117.506 145.306 134.844-3.588-6.666-6.756-13.61-9.54-21.114-6.85-18.438-5.514-38.562 3.676-56.688 9.984-19.584 27.864-34.27 49.126-40.292 6.016-1.708 12.156-2.562 18.214-2.562 11.112 0 22.14 2.834 32.082 8.376 15.456 8.584 26.652 22.666 31.498 39.666 8.564 30.292-9.106 61.938-39.434 70.52-11.572 3.312-23.226-3.354-26.442-14.688s3.384-23.146 14.746-26.354c7.686-2.166 12.114-10.188 9.942-17.834-1.712-6.020-5.64-11-11.112-14.042-5.472-3.062-11.822-3.792-17.796-2.042-9.65 2.75-18.13 9.688-22.642 18.562-2.674 5.23-5.138 13.396-1.754 22.562 5.682 15.282 12.47 28.352 31.866 42.050 82.516-5.092 155.53-60.74 183.522-140.966 23.352-9.020 39.644-31.75 39.644-57.666-0.004-22.748-12.118-42.936-31.292-53.748zM446.934 661.334c0-11.806-9.57-21.376-21.376-21.376s-21.376 9.57-21.376 21.376c0 11.806 9.57 21.376 21.376 21.376s21.376-9.57 21.376-21.376zM618.070 661.334c0-11.806-9.57-21.376-21.376-21.376s-21.376 9.57-21.376 21.376c0 11.806 9.57 21.376 21.376 21.376s21.376-9.57 21.376-21.376zM468.344 563.502c0-16.662 19.15-30.17 42.776-30.17s42.776 13.508 42.776 30.17c0.002 16.664-85.552 16.664-85.552 0z" />
<glyph unicode="&#xe945;" glyph-name="child" data-tags="child" d="M180.561 392.642c-13.646 123.619 45.399 198.216 68.163 222.177 21.050-128.016 131.541-226.284 265.377-226.284 126.82 0 232.589 88.244 261.465 206.43 21.697-38.609 58.56-117.604 49.603-202.323 224.796 1.875 114.047 258.846-43.588 287.010-1.132 13.161-2.134 26.289-5.109 38.964-9.28 81.227-82.003 246.332-290.34 241.255-179.753-4.204-218.976-139.431-228.385-221.854-6.338-20.371-10.38-41.486-11.802-63.442-233.947-40.71-208.111-278.085-65.382-281.933zM387.735 734.525c0 0 23.055-7.825 23.055-82.941 39.708-13.904 108.647 116.569 108.647 116.569v-102.73c44.106-11.867 182.307 4.010 182.307 4.010l5.141-4.462c0.162-2.166 0.647-4.301 0.647-6.596 0-106.707-86.853-193.56-193.366-193.56-105.22 0-190.779 84.557-193.043 189.292 38.382 14.001 66.611 80.418 66.611 80.418zM574.052 353.031h-208.564l-278.182-335.222 60.435-81.809 207.626 237.827 11.996-94.226-37.218-82.488 377.064 6.273-49.958 76.215 9.28 116.020 162.421-217.618 107.709 26.709-257.584 348.318z" />
<glyph unicode="&#xe946;" glyph-name="shopping-cart" data-tags="shopping-cart" horiz-adv-x="1220" d="M938.272 29.089c0-25.707 9.189-47.639 27.5-65.806 18.312-18.185 40.436-27.284 66.357-27.284 25.883 0 48.006 9.099 66.318 27.284 18.33 18.167 27.5 40.099 27.5 65.806s-9.16 47.64-27.5 65.825c-18.312 18.167-40.434 27.266-66.318 27.266-25.921 0-48.045-9.099-66.357-27.266-18.312-18.185-27.5-40.118-27.5-65.825zM1205.834 853.099c-9.29 9.214-20.278 13.822-32.986 13.822h-880.366c-0.495 3.39-1.595 9.567-3.304 18.536-1.711 8.974-3.051 16.122-4.030 21.461-0.983 5.316-2.805 11.745-5.499 19.26-2.688 7.519-5.864 13.465-9.528 17.818-3.658 4.376-8.544 8.123-14.655 11.284-6.105 3.141-13.073 4.72-20.888 4.72h-187.654c-12.714 0-23.708-4.616-32.992-13.816-9.287-9.211-13.931-20.126-13.931-32.73s4.645-23.514 13.931-32.725c9.292-9.213 20.288-13.816 32.992-13.816h149.522l129.739-598.545c-0.971-1.937-5.98-11.141-15.026-27.633-9.040-16.494-16.247-30.911-21.617-43.273-5.374-12.377-8.062-21.948-8.062-28.731 0-12.604 4.644-23.517 13.926-32.742 9.296-9.186 20.287-13.809 32.994-13.809h750.595c12.705 0 23.704 4.62 32.985 13.809 9.294 9.224 13.934 20.135 13.934 32.742s-4.64 23.519-13.934 32.724c-9.279 9.205-20.278 13.827-32.985 13.827h-674.372c11.734 23.276 17.598 38.773 17.598 46.533 0 4.862-0.611 10.199-1.836 16.005s-2.688 12.24-4.399 19.28c-1.712 7.010-2.805 12.225-3.293 15.622l765.304 88.724c12.202 1.465 22.228 6.659 30.047 15.64 7.82 8.962 11.72 19.263 11.72 30.907v372.367c-0.005 12.604-4.637 23.514-13.931 32.74zM281.477 29.089c0-25.707 9.159-47.639 27.488-65.806 18.334-18.185 40.437-27.284 66.346-27.284 25.892 0 48.009 9.099 66.33 27.284 18.33 18.167 27.497 40.099 27.497 65.806s-9.16 47.64-27.497 65.825c-18.324 18.167-40.434 27.266-66.328 27.266-25.906 0-48.024-9.099-66.348-27.266-18.319-18.185-27.488-40.118-27.488-65.825z" />
<glyph unicode="&#xe947;" glyph-name="payment" data-tags="payment" horiz-adv-x="1293" d="M1261.803 928.671c-21.107 20.887-46.479 31.329-76.116 31.329h-1077.899c-29.641 0-55.009-10.44-76.13-31.329-21.109-20.892-31.659-45.996-31.659-75.331v-810.667c0-29.342 10.55-54.448 31.659-75.338 21.121-20.89 46.489-31.334 76.13-31.334h1077.899c29.637 0 55.007 10.445 76.116 31.334 21.107 20.886 31.67 45.994 31.67 75.338v810.667c0 29.335-10.563 54.439-31.67 75.331zM1207.233 42.656c0-5.786-2.131-10.772-6.397-15.008-4.263-4.202-9.318-6.311-15.148-6.311h-1077.899c-5.835 0-10.89 2.109-15.156 6.327-4.264 4.234-6.399 9.221-6.399 15.008v405.328h1121.001l-0.002-405.344zM1207.233 704.013h-1121.002v149.336c0 5.777 2.128 10.767 6.399 14.998 4.268 4.21 9.323 6.323 15.156 6.323h1077.898c5.831 0 10.885-2.104 15.15-6.323 4.265-4.231 6.396-9.221 6.396-14.998l0.004-149.336zM344.928 192.005h-172.46v-85.341h172.46v85.341zM689.856 192.005h-258.693v-85.341h258.693v85.341z" />
<glyph unicode="&#xe948;" glyph-name="eye" data-tags="eye" d="M512 753.2c-195.646 0-373.068-107.040-503.988-280.901-10.683-14.244-10.683-34.144 0-48.388 130.92-174.071 308.342-281.11 503.988-281.11s373.068 107.040 503.988 280.901c10.683 14.244 10.683 34.144 0 48.388-130.92 174.071-308.342 281.11-503.988 281.11zM526.035 233.083c-129.872-8.169-237.121 98.87-228.952 228.952 6.703 107.249 93.634 194.18 200.883 200.883 129.872 8.169 237.121-98.87 228.952-228.952-6.913-107.040-93.843-193.97-200.883-200.883zM519.541 332.372c-69.963-4.399-127.777 53.206-123.169 123.169 3.561 57.814 50.483 104.526 108.297 108.297 69.963 4.399 127.777-53.206 123.169-123.169-3.77-58.024-50.692-104.736-108.297-108.297z" />
<glyph unicode="&#xe949;" glyph-name="hotel-details" data-tags="hotel-details" d="M768 510.112v271.2l-178.752 178.688h-589.248v-1024h768v1.888c143.968 16 255.936 137.919 256 286.112-0.064 148.288-112.032 270.208-256 286.111zM575.936 882.784l114.816-114.784h-114.816v114.784zM64 0v896.064h448v-192.033h192v-193.92c-56.063-6.208-107.265-28.48-148.864-62.112h-427.136v-64h368.544c-13.185-19.711-23.776-41.248-31.808-64h-336.736v-64h321.888c-1.184-10.528-1.888-21.152-1.888-31.999 0-90.528 41.856-171.265 107.2-224.001h-491.2zM735.999 3.744c-121.631 0.288-220.032 98.688-220.287 220.257 0.255 121.631 98.656 220.032 220.287 220.32 121.569-0.288 219.969-98.689 220.257-220.32-0.288-121.569-98.688-219.969-220.257-220.257zM640 576h-512v-64h512v64zM768 256h-64v-192h64v192zM768 384h-64v-64h64v64z" />
<glyph unicode="&#xe94a;" glyph-name="Flightevent" data-tags="Flight+event" horiz-adv-x="2627" d="M2060.398 872.143l-79.651-89.766h-137.974c-47.878 0-87.050-40.395-87.050-89.766v-538.593c0-49.371 39.173-89.766 87.050-89.766h696.401c47.878 0 87.050 40.394 87.050 89.766v538.593c0 49.371-39.173 89.766-87.050 89.766h-137.974l-79.651 89.766h-261.151zM2190.987 198.899c-120.129 0-217.625 100.538-217.625 224.414s97.496 224.415 217.625 224.415c120.129 0 217.625-100.538 217.625-224.415s-97.496-224.414-217.625-224.414v0zM275.634-63.93h91.877l229.694 431.128h252.663c38.129 0 68.909 36.108 68.909 80.836s-30.779 80.836-68.909 80.836h-252.663l-229.694 431.13h-91.877l114.847-431.13h-252.661l-68.91 107.783h-68.91l45.94-188.62-45.94-188.622h68.91l68.91 107.785h252.661l-114.847-431.126zM1276.34 264.332v144.284h-145.42v99.598h145.42v144.284h96.947v-144.284h145.799v-99.598h-145.799v-144.284h-96.947z" />
<glyph unicode="&#xe94b;" glyph-name="facebook" data-tags="facebook" d="M767.965 959.787l-132.79 0.213c-149.185 0-245.595-98.913-245.595-252.008v-116.192h-133.514c-11.537 0-20.88-9.353-20.88-20.891v-168.35c0-11.537 9.353-20.88 20.88-20.88h133.514v-424.8c0-11.537 9.343-20.88 20.88-20.88h174.198c11.537 0 20.88 9.353 20.88 20.88v424.8h156.109c11.537 0 20.88 9.343 20.88 20.88l0.064 168.35c0 5.54-2.205 10.845-6.115 14.765s-9.236 6.125-14.776 6.125h-156.163v98.498c0 47.342 11.282 71.375 72.952 71.375l89.453 0.032c11.527 0 20.869 9.353 20.869 20.88v156.322c0 11.516-9.332 20.859-20.848 20.88z" />
<glyph unicode="&#xe94c;" glyph-name="linkedin" data-tags="linkedin" d="M238.361 630.569h-205.57c-9.124 0-16.516-7.396-16.516-16.516v-660.407c0-9.124 7.393-16.516 16.516-16.516h205.57c9.124 0 16.516 7.393 16.516 16.516v660.407c0 9.12-7.393 16.516-16.516 16.516zM135.65 958.874c-74.798 0-135.65-60.786-135.65-135.502 0-74.749 60.852-135.558 135.65-135.558 74.739 0 135.541 60.812 135.541 135.558 0.003 74.716-60.802 135.502-135.541 135.502zM761.242 646.983c-82.564 0-143.598-35.493-180.617-75.822v42.892c0 9.12-7.393 16.516-16.516 16.516h-196.869c-9.124 0-16.516-7.396-16.516-16.516v-660.407c0-9.124 7.393-16.516 16.516-16.516h205.12c9.124 0 16.516 7.393 16.516 16.516v326.748c0 110.106 29.907 153.002 106.661 153.002 83.591 0 90.234-68.767 90.234-158.667v-321.087c0-9.124 7.393-16.516 16.516-16.516h205.196c9.124 0 16.516 7.393 16.516 16.516v362.245c0 163.724-31.219 331.096-262.758 331.096z" />
<glyph unicode="&#xe94d;" glyph-name="sina-weibo" data-tags="sina-weibo" d="M753.221 444.491c-14.13 4.292-23.814 7.255-16.425 26.13 16.003 41.011 17.681 76.383 0.319 101.618-32.562 47.341-121.624 44.799-223.685 1.266 0 0.051-32.068-14.274-23.876 11.619 15.705 51.396 13.317 94.414-11.094 119.268-55.368 56.407-202.649-2.141-328.987-130.66-94.578-96.287-149.473-198.347-149.473-286.586 0-168.77 212.622-281.677 420.653-281.677 272.693 0 454.121 171.559 454.121 299.595 0 77.381-64.023 121.285-121.552 139.429zM421.219 81.14c-166.001-16.446-309.269 58.96-320.064 168.574-10.775 109.563 115.079 211.778 281.060 228.275 166.011 16.528 309.31-58.939 320.064-168.502 10.744-109.614-115.028-211.839-281.060-228.347zM1024 581.923c-0.082 170.447-138.266 308.61-308.744 308.61-19.904 0-36.020-16.127-36.020-36.020 0-19.904 16.116-36.020 36.020-36.020 130.732 0 236.704-105.981 236.704-236.704 0-19.904 16.137-36.020 36.020-36.020 19.904 0 36.020 16.116 36.020 36.020 0 0 0 0.082 0 0.134zM880.877 587.213c-16.456 80.366-79.81 143.71-160.187 160.176-19.461 4.003-38.511-8.542-42.504-28.024-4.014-19.482 8.532-38.511 27.993-42.535 52.26-10.703 93.446-51.859 104.139-104.119 4.024-19.482 23.053-32.017 42.535-28.024 19.471 4.024 32.006 23.053 28.024 42.524zM336.078 370.67c-66.874-13.441-111.992-69.519-100.795-125.237 11.187-55.728 74.479-89.999 141.353-76.548 66.853 13.441 111.992 69.498 100.784 125.237-11.177 55.708-74.49 89.989-141.343 76.548z" />
<glyph unicode="&#xe94e;" glyph-name="twitter" data-tags="twitter" d="M1024 765.477c-37.689-16.7-78.129-28.026-120.618-33.083 43.384 25.98 76.594 67.187 92.334 116.139-40.696-24.059-85.616-41.529-133.48-50.999-38.328 40.888-92.846 66.356-153.316 66.356-116.010 0-210.072-94.062-210.072-210.009 0-16.444 1.856-32.505 5.44-47.864-174.559 8.768-329.345 92.399-432.941 219.481-18.109-30.971-28.411-67.059-28.411-105.581 0-72.883 37.113-137.191 93.423-174.815-34.426 1.151-66.804 10.621-95.15 26.363v-2.624c0-101.741 72.435-186.652 168.48-205.978-17.597-4.735-36.153-7.359-55.35-7.359-13.565 0-26.683 1.344-39.544 3.904 26.746-83.505 104.301-144.228 196.188-145.893-71.859-56.31-162.466-89.776-260.879-89.776-16.956 0-33.658 1.024-50.102 2.88 92.975-59.702 203.354-94.511 321.988-94.511 386.423 0 597.648 320.069 597.648 597.648l-0.704 27.195c41.271 29.437 76.976 66.421 105.067 108.526z" />
<glyph unicode="&#xe94f;" glyph-name="youtube" data-tags="youtube" d="M984.087 746.463c-36.963 43.94-105.208 61.863-235.54 61.863h-473.105c-133.315 0-202.716-19.079-239.54-65.86-35.903-45.611-35.903-112.815-35.903-205.827v-177.281c0-180.194 42.598-271.684 275.443-271.684h473.108c113.023 0 175.652 15.816 216.17 54.592 41.551 39.764 59.28 104.689 59.28 217.091v177.281c0 98.089-2.778 165.69-39.913 209.824zM657.411 423.523l-214.835-112.28c-4.803-2.51-10.055-3.756-15.301-3.756-5.939 0-11.865 1.599-17.114 4.776-9.883 5.989-15.918 16.701-15.918 28.256v223.84c0 11.535 6.018 22.237 15.882 28.229 9.867 5.992 22.138 6.402 32.375 1.083l214.835-111.557c10.93-5.675 17.794-16.959 17.811-29.27 0.013-12.321-6.821-23.621-17.735-29.323z" />
<glyph unicode="&#xe950;" glyph-name="wechat" data-tags="wechat" d="M689.459 609.485c11.571 0 22.938-0.922 34.304-2.15-30.72 143.155-183.706 249.446-358.4 249.446-195.174 0-355.123-133.018-355.123-302.080 0-97.485 53.146-177.562 142.131-239.821l-35.533-106.803 124.211 62.259c44.442-8.704 80.077-17.715 124.416-17.715 11.162 0 22.221 0.512 33.075 1.331-6.861 23.757-10.957 48.64-10.957 74.547 0 155.034 133.222 280.986 301.875 280.986v0zM498.586 705.741c26.829 0 44.442-17.613 44.442-44.339 0-26.624-17.613-44.442-44.442-44.442-26.522 0-53.248 17.818-53.248 44.442 0 26.829 26.624 44.339 53.248 44.339v0zM250.061 616.96c-26.624 0-53.453 17.818-53.453 44.442 0 26.726 26.829 44.339 53.453 44.339s44.339-17.613 44.339-44.339c0-26.624-17.715-44.442-44.339-44.442v0zM1013.76 332.595c0 142.029-142.131 257.741-301.773 257.741-169.062 0-302.080-115.814-302.080-257.741 0-142.336 133.12-257.741 302.080-257.741 35.328 0 71.066 8.806 106.598 17.715l97.382-53.453-26.726 88.781c71.373 53.658 124.518 124.621 124.518 204.698v0zM614.093 377.139c-17.613 0-35.533 17.613-35.533 35.533 0 17.715 17.92 35.533 35.533 35.533 26.931 0 44.442-17.818 44.442-35.533 0-18.022-17.51-35.533-44.442-35.533v0zM809.37 377.139c-17.51 0-35.328 17.613-35.328 35.533 0 17.715 17.715 35.533 35.328 35.533 26.726 0 44.442-17.818 44.442-35.533 0.102-18.022-17.715-35.533-44.442-35.533v0z" />
<glyph unicode="&#xe951;" glyph-name="continue" data-tags="continue" d="M1014.562 463.275l-989.862 494.929c-6.912 3.448-15.258 1.81-20.394-3.924-5.12-5.768-5.734-14.25-1.518-20.702l318.138-485.577-318.14-485.579c-4.216-6.452-3.602-14.934 1.518-20.702 3.328-3.72 8.004-5.718 12.766-5.718 2.578 0 5.188 0.58 7.628 1.792l989.86 494.931c5.786 2.902 9.438 8.806 9.438 15.274s-3.65 12.374-9.434 15.276z" />
<glyph unicode="&#xe952;" glyph-name="INS" data-tags="INS" horiz-adv-x="1412" d="M219.969 490.057c-28.204-28.204-28.204-74.107 0-102.588 28.204-28.204 74.107-28.204 102.588 0 144.714 144.714 356.738 182.155 536.282 112.322l161.197 80.551c-249.277 156.776-583.339 126.681-800.067-90.285zM415.743 294.283c-28.204-28.205-28.204-74.108 0-102.588 28.204-28.204 74.107-28.204 102.588 0 87.103 87.38 229.233 87.38 316.336 0 14.102-14.102 32.631-21.291 51.158-21.291s37.052 7.189 51.155 21.291c28.204 28.204 28.204 74.107 0 102.312-143.513 144.066-377.446 144.065-521.235 0.276h-0.001zM773.005 33.805c0-53.298-43.206-96.504-96.504-96.504s-96.504 43.206-96.504 96.504c0 53.298 43.206 96.504 96.504 96.504s96.504-43.206 96.504-96.504zM1331.847 689.15c-361.41 361.133-949.285 361.133-1310.694 0-28.204-28.204-28.204-74.107 0-102.588 28.204-28.204 74.107-28.204 102.588 0 304.722 304.999 800.796 304.999 1105.795 0 14.102-14.102 32.628-21.291 51.155-21.291s37.054 7.189 51.156 21.291c28.21 28.204 28.21 74.107 0 102.588v0zM1074.209 613.822c-186.797 0-338.25-151.453-338.25-338.25s151.453-338.25 338.25-338.25c186.838 0 338.25 151.453 338.25 338.25s-151.412 338.25-338.25 338.25zM1166.451 144.97c-16.64-18.663-40.669-29.647-72.092-32.95v-47.854h-40.052v47.607c-52.397 5.367-84.811 35.84-97.321 91.334l61.935 16.145c5.74-34.89 24.733-52.315 56.981-52.315 15.071 0 26.22 3.715 33.322 11.19s10.652 16.475 10.652 27.045c0 10.942-3.552 19.242-10.652 24.857-7.102 5.655-22.916 12.801-47.401 21.471-22.007 7.637-39.226 15.154-51.614 22.667-12.387 7.432-22.462 17.878-30.184 31.299-7.722 13.461-11.602 29.152-11.602 46.989 0 23.412 6.937 44.512 20.728 63.257 13.792 18.704 35.51 30.143 65.157 34.313v36.954h40.052v-36.955c44.759-5.368 73.745-30.679 86.916-75.974l-55.164-22.627c-10.776 31.050-27.377 46.575-49.92 46.575-11.314 0-20.398-3.468-27.211-10.405-6.855-6.937-10.281-15.36-10.281-25.229 0-10.075 3.303-17.796 9.91-23.206 6.565-5.368 20.728-12.016 42.365-19.985 23.783-8.672 42.446-16.887 55.949-24.609 13.543-7.722 24.32-18.416 32.413-32 8.052-13.626 12.096-29.524 12.096-47.733 0-27.951-8.341-51.238-24.982-69.861z" />
<glyph unicode="&#xe953;" glyph-name="kids-delete-button" data-tags="kids-delete-button" d="M924.446 197.571c-70.392 82.459-160.896 144.803-233.299 225.254-8.045 8.042-14.078 16.090-22.123 24.134 68.384 80.445 140.787 160.893 211.179 241.341 38.213 42.235 84.47 144.806 10.056 183.019-78.437 40.224-152.851-14.078-213.187-62.347-62.347-50.28-120.672-106.594-172.963-164.918-58.325 68.381-118.661 134.75-185.030 197.098-48.275 44.246-176.992 166.93-249.392 98.549-70.392-62.347-14.078-162.907 40.224-215.198 6.034-6.034 14.078-8.045 22.123-6.034 88.493-70.392 162.907-152.851 235.31-239.333-92.515-120.669-176.986-247.378-269.501-364.027-4.022-4.022-4.022-8.042-4.022-14.075-38.213-28.157-58.325-92.515-24.134-128.717 64.358-68.384 146.818-28.157 209.165 22.12 98.549 76.426 178.997 185.030 257.434 287.605 60.336-66.37 122.683-128.717 195.086-183.019 58.325-44.246 150.837-110.616 225.254-66.37 70.392 40.224 2.008 126.706-32.179 164.918zM385.444 666.177c0 4.022-2.011 8.045-4.022 10.056-8.045 10.056-18.101 22.123-26.146 34.19v2.011c16.090-20.112 32.179-42.235 48.269-62.347-6.037 4.022-12.067 10.056-18.101 16.090zM592.594 654.11c-6.034-6.034-10.056-14.078-16.090-20.112-6.034-4.022-14.078-10.056-20.112-14.078 12.067 12.067 24.134 26.146 36.202 38.213 0-2.011 0-2.011 0-4.022z" />
<glyph unicode="&#xe954;" glyph-name="sos" data-tags="sos" d="M884.664 820.668c-89.85 89.85-209.31 139.332-336.376 139.332-126.59 0-248.674-51.076-337.618-140.632-14.172 7.43-28.758 11.122-43.878 11.122-45.484 0-82.396-33.386-114.962-62.842-5.72-5.174-11.126-10.062-16.384-14.588-19.712-16.594-31.708-44.568-34.692-80.906-4.428-53.928 10.904-125.252 43.168-200.83 36.368-85.19 93.326-174.21 164.638-257.346 162.68-192.026 336.722-277.978 437.036-277.978 29.084 0 52.204 7.004 68.714 20.82l0.24 0.204c5.556 4.8 11.486 9.664 17.766 14.814 36.964 30.316 78.862 64.678 80.724 114.954 0.030 0.782 0.036 1.566 0.046 2.348 63.036 42.264 115.47 99.412 152.062 165.966 38.496 70.024 58.846 149.274 58.846 229.182 0.002 127.068-49.48 246.53-139.33 336.38zM166.792 790.486c23.89 0 48.732-18.516 73.842-55.040 33.324-48.446 46.736-83.908 40.998-108.41-2.006-8.566-6.39-16.322-12.504-23.864-30.070 57.644-79.658 135.934-119.484 184.518 5.722 1.792 11.45 2.796 17.148 2.796zM706.95 2.768c-6.434-5.276-12.514-10.262-18.414-15.356-9-7.464-23.844-11.41-42.94-11.41-88.136 0-252.944 82.562-406.594 263.926-68.77 80.17-123.506 165.616-158.292 247.1-29.756 69.704-43.994 134.288-40.088 181.85 2.064 25.146 9.39 44.186 20.626 53.614l0.192 0.162c5.664 4.874 11.278 9.952 17.22 15.326 11.258 10.182 23.138 20.924 35.328 30.022 40.618-47.836 95.942-135.798 124.872-193.496-2.632-2.176-5.324-4.382-8.094-6.65-2.68-2.194-5.394-4.416-8.136-6.68l-0.382-0.326c-26.014-22.61-24.282-61.29 5.15-114.964 19.382-35.346 50.914-78.544 96.446-132.11 89.472-104.494 151.602-153.162 195.526-153.162 13.334 0 25.482 4.442 35.062 12.79 0.376 0.324 0.73 0.64 1.106 0.964 53.946-31.728 133.064-95.714 177.988-149.094-8.452-7.638-17.556-15.108-26.576-22.506zM760.756 55.004c-45.668 52.956-118.25 112.19-173.132 146.648 14.848 11.472 28.746 19.084 44.35 19.084 24.696 0 56.77-18.658 98.048-57.032 29.378-28.002 43.862-53.382 43.042-75.43-0.434-11.706-5.070-22.726-12.308-33.27zM803.874 131.418c-8.902 19.994-24.278 40.316-46.348 61.334l-0.174 0.162c-49.752 46.274-89.594 67.824-125.38 67.824-38.536 0-65.614-23.732-94.284-48.858-3.078-2.698-6.204-5.44-9.466-8.254-2.42-2.108-5.068-3.008-8.854-3.008-17.168 0-61.45 18.080-165.092 139.12-43.708 51.424-73.738 92.436-91.802 125.38-17.976 32.784-23.242 57.204-14.122 65.418 2.61 2.156 5.198 4.272 7.75 6.362 7.064 5.782 14.030 11.488 20.648 17.314 0.142 0.126 0.29 0.244 0.428 0.372 20.314 17.944 37.26 37.096 43.402 63.332 8.684 37.092-5.808 80.332-46.988 140.196-10.034 14.596-20.2 26.926-30.548 37.062 81.106 79.564 191.184 124.826 305.244 124.826 240.25 0 435.708-195.458 435.708-435.71 0-141.034-66.856-271.034-180.122-352.872zM439.564 854.898c-3.654 10.424-15.072 15.916-25.49 12.258-30.034-10.526-58.83-24.608-85.588-41.856-9.284-5.984-11.958-18.362-5.974-27.646 3.824-5.934 10.258-9.168 16.83-9.168 3.708 0 7.464 1.032 10.816 3.192 24.118 15.546 50.076 28.24 77.146 37.728 10.424 3.656 15.914 15.068 12.26 25.492zM497.448 867.158c-2.020 10.862-12.472 18.024-23.318 16.008l-1.418-0.266c-10.85-2.074-17.964-12.55-15.89-23.398 1.828-9.584 10.214-16.252 19.622-16.252 1.244 0 2.508 0.118 3.776 0.36l1.218 0.23c10.86 2.018 18.028 12.458 16.010 23.318zM632.728 628.998c-35.002 0-63.476-28.476-63.476-63.476v-115.544c0-35 28.476-63.476 63.478-63.476s63.476 28.476 63.476 63.476v115.544c0 35-28.478 63.476-63.478 63.476zM656.206 449.978c0-12.946-10.532-23.476-23.476-23.476h-0.002c-12.946 0-23.476 10.532-23.476 23.476v115.544c0 12.946 10.534 23.476 23.478 23.476 12.946 0 23.476-10.532 23.476-23.476v-115.544zM803.728 527.75c-16.13 0-29.254 13.124-29.254 29.254s13.122 29.252 29.252 29.252c10.418 0 20.126-5.604 25.332-14.626 5.522-9.564 17.748-12.844 27.32-7.322 9.566 5.522 12.846 17.754 7.324 27.32-12.33 21.36-35.312 34.628-59.976 34.628-38.186 0-69.252-31.066-69.252-69.252s31.066-69.254 69.252-69.254c0 0 0 0 0.002 0 16.13 0 29.252-13.122 29.252-29.252s-13.122-29.254-29.252-29.254c-10.418 0-20.126 5.606-25.336 14.628-5.522 9.564-17.754 12.844-27.32 7.32-9.566-5.522-12.844-17.754-7.32-27.32 12.332-21.36 35.312-34.628 59.976-34.628 38.186 0 69.252 31.068 69.252 69.254s-31.066 69.252-69.252 69.252zM461.728 527.75c-16.13 0-29.254 13.124-29.254 29.254s13.124 29.252 29.252 29.252c10.418 0 20.126-5.604 25.332-14.626 5.522-9.564 17.75-12.844 27.32-7.322 9.566 5.522 12.846 17.754 7.324 27.32-12.33 21.36-35.312 34.628-59.976 34.628-38.186 0-69.252-31.066-69.252-69.252s31.066-69.254 69.252-69.254c0 0 0 0 0.002 0 16.128 0 29.252-13.122 29.252-29.252s-13.122-29.254-29.252-29.254c-10.418 0-20.126 5.606-25.336 14.628-5.522 9.564-17.754 12.844-27.32 7.32-9.566-5.522-12.844-17.754-7.32-27.32 12.332-21.36 35.312-34.628 59.976-34.628 38.186 0 69.252 31.068 69.252 69.254s-31.066 69.252-69.252 69.252z" />
<glyph unicode="&#xe955;" glyph-name="car" data-tags="car" d="M980.327 584.15c-4.62 0-9.362-0.659-14.094-1.967l-49.732-13.697-52.57 128.045c-15.75 38.376-62.319 69.601-103.808 69.601h-34.979v106.154c0 18.66-15.177 33.837-33.837 33.837h-358.611c-18.66 0-33.837-15.177-33.837-33.837v-106.154h-35.701c-41.484 0-88.058-31.22-103.808-69.596l-52.497-127.869-49.082 13.521c-4.733 1.304-9.479 1.967-14.094 1.967-25.306-0.005-43.677-19.341-43.677-45.978v-27.214c0-31.099 25.301-56.395 56.395-56.395h3.618l-7.507-18.281c-14.636-35.655-26.546-96.021-26.546-134.559v-255.453c0-31.099 25.297-56.395 56.395-56.395h67.796c31.099 0 56.395 25.297 56.395 56.395v62.784h610.193v-62.784c0-31.099 25.301-56.395 56.395-56.395h67.783c31.099 0 56.395 25.297 56.395 56.395v255.453c0 38.538-11.911 98.904-26.546 134.559l-7.507 18.281h4.345c31.099 0 56.395 25.297 56.395 56.395v27.214c0 26.637-18.367 45.974-43.673 45.974zM647.924 860.997c0 0.744 0.609 1.353 1.353 1.353h26.068c0.744 0 1.353-0.609 1.353-1.353v-93.828c0-0.451-0.257-0.79-0.596-1.038h-27.584c-0.338 0.248-0.596 0.587-0.596 1.038v93.828zM460.962 862.35h31.324c0.744 0 1.579-0.564 1.854-1.259l37.18-93.463 34.081 42.161c0.469 0.577 0.514 1.561 0.104 2.179l-32.709 49.253c-0.415 0.623-0.14 1.128 0.605 1.128h28.969c0.744 0 1.674-0.519 2.062-1.15l16.86-27.349c0.388-0.636 1.029-0.636 1.417 0l16.873 27.349c0.388 0.636 1.317 1.15 2.062 1.15h28.983c0.744 0 1.015-0.505 0.605-1.128l-32.736-49.253c-0.415-0.623-0.365-1.602 0.099-2.179l34.703-42.924c0.235-0.284 0.289-0.55 0.203-0.74h-30.76c-0.406 0.212-0.771 0.496-0.984 0.835l-19.044 30.476c-0.397 0.632-1.038 0.632-1.435 0l-19.003-30.476c-0.212-0.338-0.577-0.623-0.984-0.835h-57.961c-0.397 0.235-0.74 0.559-0.871 0.97l-6.388 19.562c-0.23 0.708-1.029 1.286-1.773 1.286h-35.507c-0.744 0-1.557-0.573-1.8-1.277l-6.885-19.58c-0.144-0.406-0.487-0.731-0.889-0.961h-27.877c-0.221 0.23-0.316 0.546-0.158 0.938l37.916 94.022c0.284 0.699 1.119 1.263 1.863 1.263zM369.286 767.168v74.532c0 0.744-0.609 1.353-1.353 1.353h-31.333c-0.744 0-1.353 0.609-1.353 1.353v16.594c0 0.744 0.609 1.353 1.353 1.353h94.338c0.744 0 1.353-0.609 1.353-1.353v-16.594c0-0.744-0.609-1.353-1.353-1.353h-31.514c-0.744 0-1.353-0.609-1.353-1.353v-74.532c0-0.451-0.257-0.79-0.596-1.038h-27.593c-0.338 0.244-0.596 0.587-0.596 1.038zM146.7 485.999l79.878 194.582c9.425 22.955 37.438 41.737 62.251 41.737h445.623c24.814 0 52.827-18.782 62.251-41.737l79.878-194.582c9.425-22.955-3.167-41.737-27.981-41.737h-673.92c-24.814 0-37.406 18.782-27.981 41.737zM327.147 235.414c0-12.407-10.151-22.558-22.558-22.558h-152.466c-12.407 0-22.558 10.151-22.558 22.558v72.33c0 12.407 10.151 22.558 22.558 22.558h152.466c12.407 0 22.558-10.151 22.558-22.558v-72.33zM892.256 235.414c0-12.407-10.151-22.558-22.558-22.558h-152.466c-12.407 0-22.558 10.151-22.558 22.558v72.33c0 12.407 10.151 22.558 22.558 22.558h152.466c12.407 0 22.558-10.151 22.558-22.558v-72.33zM487.964 807.245c0.744 0 1.11 0.559 0.817 1.241l-11.243 25.946c-0.298 0.681-0.794 0.69-1.101 0.014l-11.906-25.973c-0.307-0.677 0.045-1.227 0.79-1.227h22.644z" />
<glyph unicode="&#xe956;" glyph-name="check" data-tags="check" d="M1005.502 732.078l-89.846 89.846c-12.319 12.329-27.302 18.495-44.914 18.495-17.628 0-32.611-6.167-44.93-18.495l-433.389-434.044-194.231 194.893c-12.333 12.333-27.307 18.493-44.918 18.493-17.623 0-32.597-6.16-44.93-18.493l-89.846-89.848c-12.333-12.331-18.498-27.309-18.498-44.93 0-17.607 6.164-32.599 18.498-44.928l329.002-328.991c12.326-12.338 27.305-18.498 44.923-18.498 17.611 0 32.59 6.176 44.923 18.498l568.156 568.149c12.322 12.333 18.498 27.309 18.498 44.93 0.009 17.611-6.176 32.59-18.498 44.923z" />
<glyph unicode="&#xe957;" glyph-name="circle-thin" data-tags="circle-thin" d="M633.6 947.2l-12.8-64c192-51.2 339.2-224 339.2-435.2 0-249.6-198.4-448-448-448s-448 198.4-448 448c0 211.2 147.2 384 339.2 435.2l-12.8 64c-224-57.6-390.4-262.4-390.4-499.2 0-281.6 230.4-512 512-512s512 230.4 512 512c0 236.8-166.4 441.6-390.4 499.2z" />
<glyph unicode="&#xe958;" glyph-name="copy" data-tags="copy" d="M1008 724.572c-10.672 10.662-23.617 15.998-38.848 15.998h-237.727c-22.851 0-47.24-7.618-73.137-22.857v187.423c0 15.243-5.328 28.205-16 38.862-10.672 10.666-23.617 16.002-38.864 16.002h-237.707c-15.239 0-32.003-3.809-50.287-11.424-18.285-7.618-32.76-16.764-43.432-27.432l-233.142-233.144c-10.668-10.666-19.814-25.144-27.432-43.428-7.616-18.291-11.424-35.044-11.424-50.289v-383.996c0-15.247 5.33-28.207 15.996-38.862 10.668-10.672 23.623-16 38.856-16h310.862v-164.578c0-15.231 5.328-28.191 15.996-38.848 10.662-10.672 23.617-16 38.856-16h548.582c15.231 0 28.191 5.328 38.848 16 10.672 10.658 16 23.617 16 38.848v694.86c0.004 15.239-5.324 28.197-15.996 38.864zM658.288 618.853v-170.852h-170.856l170.856 170.852zM292.569 838.285v-170.852h-170.852l170.852 170.852zM404.573 468.572c-10.668-10.668-19.814-25.146-27.432-43.434-7.616-18.295-11.424-35.042-11.424-50.289v-146.273h-292.569v365.706h237.705c15.243 0 28.195 5.332 38.862 16 10.662 10.668 16 23.619 16 38.852v237.717h219.434v-237.715l-180.576-180.566zM950.849 9.137h-512.003v365.726h237.723c15.239 0 28.185 5.328 38.848 16 10.664 10.658 16 23.611 16 38.848v237.719h219.418v-658.294h0.014z" />
<glyph unicode="&#xe959;" glyph-name="currency" data-tags="currency" d="M180.992 591.68h-180.992v-492.352h837.472v492.288l-656.48 0.064zM494.688 286.816c-2.752-6.016-6.624-11.328-11.424-15.744s-10.56-8.064-17.184-10.816c-6.624-2.816-13.888-4.448-21.696-4.896v-16.352h-36.192v21.248c-1.952 0.864-3.744 1.664-5.568 2.432-1.888 0.672-3.616 1.632-5.312 2.432v-8h-36.32v54.304h36.32c3.072-3.36 6.112-6.368 9.184-8.864 3.008-2.496 6.112-4.64 9.312-6.176 3.2-1.696 6.752-2.88 10.56-3.584 3.936-0.768 8.384-1.184 13.376-1.184 6.56 0 12 1.312 16.32 4s6.496 6.176 6.496 10.496c0 3.584-1.12 6.752-3.36 9.44s-5.12 4.992-8.672 6.912c-3.488 1.952-7.36 3.392-11.616 4.576-4.256 1.12-8.448 1.984-12.576 2.688-14.688 2.24-26.432 5.696-35.264 10.368s-15.552 9.76-20.32 15.328c-4.736 5.504-7.872 11.2-9.312 16.928-1.504 5.76-2.24 10.88-2.24 15.36 0 6.528 1.248 12.768 3.68 18.688 2.368 5.888 5.76 11.072 10.176 15.584 4.448 4.672 9.632 8.416 15.552 11.328 5.952 3.072 12.448 5.12 19.552 6.080v17.12h36.192v-19.68c5.44-1.568 10.24-3.584 14.496-6.208v7.808h36.32v-54.432h-36.576c-2.88 3.328-5.76 6.112-8.512 8.672s-5.76 4.608-8.8 6.208c-3.072 1.664-6.56 2.912-10.176 3.744-3.744 0.864-8.128 1.312-13.12 1.312-7.264 0-12.8-1.76-16.672-5.248-3.872-3.392-5.824-7.136-5.824-11.136 0-11.264 12.064-18.624 36.192-22.24 15.072-2.208 27.072-5.952 35.872-11.008 8.928-5.12 15.68-10.624 20.384-16.576 4.704-6.016 7.616-11.808 8.928-17.696 1.312-5.856 1.952-10.496 1.952-14.048 0-6.816-1.376-13.312-4.128-19.168zM175.136 150.432c-16.192 60.8-63.552 108.864-124.064 126.016v137.888c60.64 17.056 108.064 65.248 124.128 126.304h143.328c-66.752-38.432-111.872-110.432-111.872-192.864 0-85.696 48.8-160.192 120.064-197.312l-151.584-0.032zM786.496 413.632v-136.576c-61.696-16.448-110.176-64.864-126.56-126.624h-128.576c71.264 37.056 120 111.552 120 197.312 0 82.368-45.12 154.4-111.808 192.832h120.256c16.32-61.92 64.864-110.56 126.688-126.944zM272.064 692.768h-180.992v-70.496h168.832c2.432 6.304 4.64 12.8 6.368 19.424h484.64c1.792-6.624 4-13.12 6.432-19.424h110.944v-104.672c3.168-0.992 6.176-2.016 9.312-2.816v-136.608c-3.136-0.736-6.144-1.824-9.312-2.816v-174.88h60.48v492.288h-656.704zM840.384 796.672h-654.016v-70.496h168.832c2.496 6.304 4.672 12.736 6.432 19.424h484.64c1.824-6.688 3.936-13.12 6.368-19.424h110.944v-104.704c3.2-0.992 6.176-2.016 9.376-2.88v-136.512c-3.2-0.864-6.176-1.824-9.376-2.88v-174.816h60.416v492.288h-183.616z" />
</font>
</defs>
</svg>
